<svg viewBox="0 0 12.7 12.7" xmlns="http://www.w3.org/2000/svg"><path d="M10.867 1.98c-.216-.217-.616.145-1.618.836-.598.412-.719.403-1.053.244-.347-.164-.981-.463-1.642-.517-.464-.037-.467-.247-.547-.482-.218-.64-.775-.538-.87.006-.048.273-.05.607-.43.721-1.646.493-2.717 2.202-2.76 3.66-.02.635.146.901.527.888.386-.012.497-.233.554-.707.322-2.054 1.705-3.29 3.967-2.75.263.062.766.242.456.537-.614.583-1.16 1.08-1.76 1.68-.662.662-2.286 2.186-3.158 3.387-.428.579-.953 1.272-.698 1.528.217.217.488-.078 1.501-.753.302-.2.741.086 1.038.212 1.207.513 2.368.517 3.554-.13.271-.149.438.095.767.265.503.262.71-.069.618-.532-.052-.26-.13-.612.019-.823.382-.542.582-.972.7-1.412.18-.669.058-1.108-.386-1.161-.424-.051-.645.566-.737.88-.465 1.6-2.34 2.494-3.685 1.947-.623-.253-.715-.237-.056-.845a65.766 65.766 0 0 0 1.844-1.765c.661-.661 2.205-2.186 3.076-3.387.402-.542.97-1.186.819-1.475a.22.22 0 0 0-.04-.053z"/></svg>