<svg viewBox="0 0 12.7 12.7" xmlns="http://www.w3.org/2000/svg">
  <g>
    <path d="M 10.86746,1.9791895 C 10.650784,1.7625151 10.251044,2.1250719 9.2491173,2.8159528 8.6509811,3.2284029 8.5303289,3.2185066 8.1962422,3.0602275 7.8488967,2.8956661 7.2150193,2.5969573 6.5535805,2.5432965 6.0901711,2.5057012 6.0873218,2.2964264 6.0070478,2.060781 5.7888945,1.4203716 5.2319128,1.5227457 5.136902,2.0674239 5.0894689,2.3396025 5.0875077,2.673981 4.7065391,2.7880679 3.0607522,3.2809517 1.9899648,4.9902609 1.9461655,6.447838 1.9270595,7.0828573 2.0932452,7.3492668 2.4744779,7.336492 2.8601589,7.3235701 2.9706317,7.1033552 3.0281382,6.6294944 3.3495948,4.5750405 4.7329816,3.3395827 6.9952259,3.8782412 7.2575035,3.9406919 7.7613243,4.1212427 7.4506022,4.4163257 6.8367174,4.9993054 6.2916873,5.4952916 5.6911657,6.0958172 5.0294588,6.7575233 3.4045366,8.2817558 2.532946,9.4831391 2.104519,10.061617 1.5798152,10.755407 1.8354974,11.011089 c 0.2166673,0.216673 0.4878922,-0.07806 1.5007666,-0.752786 0.3016926,-0.200973 0.7409371,0.08538 1.0373731,0.211402 1.2074156,0.51329 2.368797,0.517608 3.554587,-0.130164 0.2710619,-0.148073 0.4372777,0.09503 0.7664092,0.265879 0.503298,0.261252 0.7101835,-0.0691 0.6183083,-0.532117 C 9.2611827,9.8123006 9.1833424,9.4605352 9.3315573,9.2502624 9.7139414,8.7078964 9.9136696,8.2781117 10.032338,7.8379744 10.212635,7.1692197 10.089981,6.7300654 9.6455289,6.6766475 9.2218195,6.625719 9.0007117,7.2430644 8.9091472,7.5577762 8.4438185,9.1572412 6.5689144,10.050945 5.2235626,9.5044468 4.6008041,9.2514723 4.5094516,9.2674832 5.1676441,8.6591483 5.7822635,8.0910841 6.4166787,7.4894585 7.011746,6.8943951 7.6734545,6.2326882 9.2167314,4.7084549 10.088323,3.5070732 c 0.401649,-0.5423239 0.969929,-1.185835 0.818466,-1.4748509 -0.01011,-0.019264 -0.02342,-0.037121 -0.03935,-0.053103 z" />
  </g>
</svg>
