<svg viewBox="0 0 12.7 12.7" xmlns="http://www.w3.org/2000/svg"><path d="M6.35 1.177c-.222 0-.29.2-.4.411-.034.068-.248.586-.655.586H4.127c-1.01 0-.85-.776-1.329-.79-.535 0-.535.557-.535 1.655 0 .88.016 1.684.013 2.2-.013 2.039.165 2.81 1.162 4.133 1.043 1.384 2.72 2.15 2.912 2.15.192 0 1.87-.766 2.912-2.15.997-1.324 1.175-2.094 1.162-4.133-.003-.516.013-1.32.013-2.2 0-1.098 0-1.656-.535-1.656-.48.015-.318.79-1.329.79H7.405c-.407 0-.62-.517-.656-.585-.108-.21-.177-.41-.399-.41Zm-.883 1.995c.415.003.415.068.415.526v5.929c0 .33-.397.04-.659-.187-.9-.778-1.824-1.447-1.824-4.397 0-.595-.002-.83 0-1.266.002-.6-.022-.6.515-.6h.984c.246 0 .43-.006.569-.005zm1.766 0c.138-.002.323.004.57.004h.982c.538 0 .515 0 .516.601v1.265c0 2.95-.923 3.62-1.824 4.398-.262.226-.66.518-.66.187V3.698c0-.458 0-.523.416-.527z"/></svg>