<svg viewBox="0 0 12.7 12.7" xmlns="http://www.w3.org/2000/svg"><path d="M3.877 2.567c-.501.008-1.547.807-2.002 2.158-.348 1.034-.519 2.506.38 4.003.156.26.67.887.903 1.07.753.596 1.23.337 1.39-.314.324-1.31.931-1.476 1.802-1.476.87 0 1.478.166 1.802 1.476.16.651.637.91 1.39.314.232-.183.747-.81.903-1.07.899-1.497.728-2.97.38-4.003-.455-1.351-1.5-2.15-2.002-2.158-.3-.004-.53.233-.61.618-.258 1.22-.893 1.567-1.863 1.567s-1.605-.346-1.862-1.567c-.081-.385-.312-.622-.61-.618Zm-.331 1.598c.084 0 .18.097.294.373.283.65 1.145 1.314 2.51 1.314 1.365 0 2.227-.665 2.51-1.314.26-.63.429-.326.566-.065.593 1.128.664 2.689.071 3.625-.293.463-.45.701-.669.077C8.493 7.22 7.446 6.868 6.35 6.87c-1.096-.002-2.143.349-2.478 1.305-.22.624-.376.386-.67-.077-.592-.936-.52-2.497.072-3.625.077-.147.164-.308.272-.308Z"/></svg>