<svg width="48" height="48" viewBox="0 0 12.7 12.7" xmlns="http://www.w3.org/2000/svg"><path d="M6.35.213A40.824 40.824 0 0 0 4.54 2.69c.432.295.489.332.929.668.326-.438.468-.618.715-.955.115.339.154 1.285.166 2.081.011-.796.05-1.742.165-2.08.247.336.39.516.716.954.44-.336.496-.373.928-.668A40.74 40.74 0 0 0 6.349.213Zm-4.062 6.38c-.37.742-.847 1.816-1.242 2.805 1.053.153 2.222.276 3.05.328.04-.52.043-.589.115-1.138-.543-.063-.77-.097-1.184-.142.235-.27 1.034-.776 1.719-1.184-.696.388-1.534.828-1.885.897.168-.382.252-.595.469-1.097-.511-.213-.572-.243-1.042-.47Zm8.124 0c-.47.226-.531.256-1.042.47.216.5.3.714.468 1.096-.35-.07-1.189-.509-1.884-.897.684.408 1.483.915 1.719 1.184-.415.045-.642.079-1.184.142.071.549.074.617.114 1.138a40.64 40.64 0 0 0 3.05-.328 40.658 40.658 0 0 0-1.241-2.805Z"/></svg>