<svg width="48" height="48" viewBox="0 0 12.7 12.7" xmlns="http://www.w3.org/2000/svg"><path d="M6.35 4.177c2.644.226 4.598 2.175 4.598 2.175S8.994 8.302 6.35 8.527c3.061 0 5.344-2.175 5.344-2.175S9.41 4.177 6.35 4.177zm0 0c-1.47.164-3.556 1.39-4.062 2.044 0 .055 3.441.088 3.441.088a.623.623 0 0 1 1.242 0s3.441-.033 3.441-.088c-.506-.654-2.591-1.88-4.062-2.044Zm0 0c-3.061 0-5.344 2.175-5.344 2.175S3.29 8.527 6.35 8.527C3.706 8.3 1.752 6.352 1.752 6.352s1.954-1.95 4.598-2.175zm0 4.35c1.47-.163 3.556-1.39 4.062-2.044 0-.055-3.441-.087-3.441-.087a.623.623 0 0 1-1.242 0s-3.441.032-3.441.087c.506.655 2.591 1.88 4.062 2.044Z"/></svg>