<svg viewBox="0 0 12.7 12.7" xmlns="http://www.w3.org/2000/svg"><path d="M1.362 1.881c-.105.004-.06.22-.06.426.054.886.216 1.58.694 2.251.225.314.581.44 1.161.518.333.045.743.147.882.163.89.103.953.159.798-.21-.188-.448-.192-.577-.25-.905-.096-.535-.307-1-.513-1.041-.072-.014-.366-.106-.508-.147a5.529 5.529 0 0 1-.9-.35 8.513 8.513 0 0 1-.707-.364c-.148-.093-.406-.248-.47-.29-.057-.037-.098-.052-.127-.051Zm9.965 0a.283.283 0 0 0-.116.051c-.064.042-.322.197-.47.29a8.63 8.63 0 0 1-.708.364c-.347.16-.549.249-.899.35-.142.041-.436.133-.508.147-.206.041-.417.506-.513 1.041-.058.328-.062.457-.25.905-.155.369-.093.313.798.21.139-.016.549-.118.882-.163.58-.077.936-.204 1.161-.518.489-.638.688-1.536.695-2.251 0-.205.044-.422-.06-.426h-.012zm-8.92 5.087c-.117 0-.102.113-.096.24.096 2.119.03 2.325-.138 3.394-.037.233-.035.235.138.202 1.14-.217 1.479-.57 1.495-.956-.013-.18-.02-1.1.149-.741.019.04.287.483.403.836.114.35 1.273.085 1.992.085.719 0 1.878.265 1.992-.085.116-.353.384-.796.403-.836.169-.36.162.56.15.74.015.386.353.74 1.494.957.173.033.175.03.138-.202-.169-1.069-.234-1.275-.138-3.393.006-.128.021-.241-.097-.24a.5.5 0 0 0-.167.041c-.373.1-.783.233-1.15.343-.389.117-.493.18-.632.356-.22.281-.263.41-.38.657-.292.618-.166.786-.531-.237-.16-.449-.04-.468-1.082-.468s-.921.02-1.082.468c-.365 1.023-.239.855-.531.237-.117-.248-.16-.376-.38-.657-.139-.176-.243-.24-.632-.356-.367-.11-.777-.243-1.15-.343a.5.5 0 0 0-.167-.042Z"/></svg>