<svg viewBox="0 0 12.7 12.7" xmlns="http://www.w3.org/2000/svg"><path d="M1.9 2.764c-.094.003-.054.197-.054.38.048.792.193 1.412.62 2.012.201.28.52.393 1.038.463.297.04.664.131.788.146.795.092.851.142.713-.188-.168-.4-.172-.516-.223-.809-.086-.478-.275-.893-.459-.93-.064-.012-.327-.095-.454-.131a4.94 4.94 0 0 1-.804-.313 7.607 7.607 0 0 1-.632-.325c-.132-.083-.363-.222-.42-.26-.05-.033-.087-.046-.113-.045Zm8.904 0a.253.253 0 0 0-.103.046c-.058.037-.288.176-.42.259a7.712 7.712 0 0 1-.633.325c-.31.143-.49.222-.803.313-.127.036-.39.119-.454.131-.184.037-.373.452-.459.93-.051.293-.055.409-.223.809-.139.33-.083.28.713.188.124-.015.49-.106.788-.146.518-.069.837-.182 1.038-.463.437-.57.614-1.372.62-2.011 0-.184.04-.377-.053-.381zM2.834 7.31c-.105 0-.092.1-.086.214.086 1.894.027 2.078-.124 3.033-.033.208-.03.21.124.18 1.018-.194 1.321-.509 1.336-.854-.012-.16-.018-.983.133-.662.017.036.256.432.36.747.102.313 1.137.076 1.78.076.642 0 1.678.237 1.78-.076.104-.315.343-.711.36-.747.151-.322.145.5.134.661.014.345.316.661 1.335.855.155.03.157.027.123-.18-.15-.955-.209-1.14-.123-3.032.006-.114.019-.215-.087-.215a.447.447 0 0 0-.149.037c-.333.09-.7.208-1.027.307-.348.104-.44.16-.565.318-.197.25-.235.366-.34.587-.26.552-.148.702-.474-.212-.143-.401-.036-.418-.967-.418-.931 0-.823.018-.967.418-.326.914-.213.764-.474.212-.105-.222-.143-.336-.34-.587-.124-.158-.217-.215-.565-.318-.328-.099-.694-.218-1.027-.307a.447.447 0 0 0-.15-.037z"/></svg>