<svg width="48" height="48" viewBox="0 0 12.7 12.7" xmlns="http://www.w3.org/2000/svg"><path d="M5.033.301a.165.165 0 0 0-.098.047.165.165 0 0 0 0 .234L6.244 1.89a.165.165 0 0 0 .116.048.165.165 0 0 0 .116-.048L7.786.58a.165.165 0 0 0 0-.233.165.165 0 0 0-.1-.047.165.165 0 0 0-.135.047L6.36 1.542 5.168.348a.165.165 0 0 0-.135-.047zm-.26.615a.2.2 0 0 0-.142.058.2.2 0 0 0 0 .283l1.588 1.588a.2.2 0 0 0 .14.06.2.2 0 0 0 .142-.06l1.588-1.588a.2.2 0 0 0 0-.283.2.2 0 0 0-.142-.058.2.2 0 0 0-.141.058L6.36 2.421 4.913.974a.2.2 0 0 0-.142-.058zm-.204 1.068a4.934 4.696 0 0 0-2.733 2.502l.138.057a4.784 4.553 0 0 1 2.65-2.426l-.055-.133zm3.582 0-.055.133a4.784 4.553 0 0 1 2.65 2.426l.138-.057a4.934 4.696 0 0 0-2.733-2.502zM1.117 4.556a.2.2 0 0 0-.143.058.2.2 0 0 0 0 .283l1.447 1.448L.974 7.792a.2.2 0 0 0 0 .283.2.2 0 0 0 .143.059.2.2 0 0 0 .14-.059l1.588-1.588a.2.2 0 0 0 .058-.142.2.2 0 0 0-.058-.143L1.257 4.614a.2.2 0 0 0-.14-.058zm10.486 0a.2.2 0 0 0-.14.058l-1.59 1.588a.2.2 0 0 0-.057.143.2.2 0 0 0 .057.142l1.588 1.588a.2.2 0 0 0 .14.059.2.2 0 0 0 .144-.059.2.2 0 0 0 0-.283l-1.447-1.447 1.447-1.448a.2.2 0 0 0 0-.283.2.2 0 0 0-.143-.058zM.466 4.869a.165.165 0 0 0-.118.049.165.165 0 0 0 0 .234l1.194 1.192H1.54v.001L.349 7.538a.165.165 0 0 0 0 .234.165.165 0 0 0 .118.048.165.165 0 0 0 .116-.048l1.309-1.31a.165.165 0 0 0 .048-.117.165.165 0 0 0-.048-.118L.58 4.918a.165.165 0 0 0-.115-.049zm11.788 0a.165.165 0 0 0-.116.049l-1.31 1.309a.165.165 0 0 0-.048.118.165.165 0 0 0 .049.118l1.309 1.309a.165.165 0 0 0 .116.048.165.165 0 0 0 .117-.048.165.165 0 0 0 0-.234l-1.193-1.193 1.193-1.193a.165.165 0 0 0 0-.234.165.165 0 0 0-.117-.049zM1.974 8.147l-.138.057a4.934 4.696 0 0 0 2.733 2.501l.054-.133a4.784 4.553 0 0 1-2.65-2.425zm8.772 0a4.784 4.553 0 0 1-2.65 2.425l.055.133a4.934 4.696 0 0 0 2.733-2.501l-.138-.057zM6.36 9.785a.2.2 0 0 0-.141.06L4.63 11.431a.2.2 0 0 0 0 .284.2.2 0 0 0 .141.058.2.2 0 0 0 .142-.058l1.445-1.447h.001l1.446 1.447a.2.2 0 0 0 .141.058.2.2 0 0 0 .142-.058.2.2 0 0 0 0-.284L6.5 9.844a.2.2 0 0 0-.141-.059zm0 .965a.165.165 0 0 0-.116.049l-1.31 1.309a.165.165 0 0 0 0 .233.165.165 0 0 0 .099.047.165.165 0 0 0 .135-.047l1.192-1.193 1.191 1.193a.165.165 0 0 0 .136.047.165.165 0 0 0 .098-.047.165.165 0 0 0 0-.233l-1.309-1.31a.165.165 0 0 0-.116-.048z"/></svg>