<svg width="48" height="48" viewBox="0 0 12.7 12.7" xmlns="http://www.w3.org/2000/svg"><path d="M4.773.916a.2.2 0 0 0-.142.341l1.588 1.588a.2.2 0 0 0 .14.06.2.2 0 0 0 .142-.06l1.588-1.588a.2.2 0 1 0-.283-.283L6.36 2.421 4.913.974a.2.2 0 0 0-.142-.058Zm-.204 1.068c-1.225.454-2.209 1.355-2.733 2.502l.138.057c.508-1.112 1.462-1.986 2.65-2.426Zm3.582 0-.055.133c1.188.44 2.142 1.314 2.65 2.426l.138-.057c-.524-1.147-1.508-2.048-2.733-2.502ZM1.117 4.556a.2.2 0 0 0-.143.341l1.447 1.448L.974 7.792a.2.2 0 1 0 .283.283l1.588-1.588a.2.2 0 0 0 .058-.142.2.2 0 0 0-.058-.143L1.257 4.614a.2.2 0 0 0-.14-.058Zm10.486 0a.2.2 0 0 0-.14.058l-1.59 1.588a.2.2 0 0 0-.057.143.2.2 0 0 0 .057.142l1.588 1.588a.2.2 0 1 0 .284-.283l-1.447-1.447 1.447-1.448a.2.2 0 0 0-.143-.341ZM1.974 8.147l-.138.057c.525 1.147 1.508 2.047 2.733 2.501l.054-.133c-1.187-.44-2.141-1.313-2.65-2.425Zm8.772 0c-.509 1.112-1.463 1.985-2.65 2.425l.055.133c1.225-.454 2.208-1.354 2.733-2.501ZM6.36 9.785a.2.2 0 0 0-.141.06L4.63 11.431a.2.2 0 1 0 .283.284l1.445-1.447h.001l1.446 1.447a.2.2 0 0 0 .283 0 .2.2 0 0 0 0-.284L6.5 9.844a.2.2 0 0 0-.141-.059Z"/></svg>