<svg width="48" height="48" viewBox="0 0 12.7 12.7" xmlns="http://www.w3.org/2000/svg"><path d="M3.578 1.912a.163.163 0 0 0-.116.048L2.28 3.143 1.1 1.96a.163.163 0 0 0-.134-.047.163.163 0 0 0-.098.047.163.163 0 0 0 0 .232l1.298 1.297a.163.163 0 0 0 .231 0l1.298-1.297a.163.163 0 0 0 .048-.115.163.163 0 0 0-.048-.117.163.163 0 0 0-.116-.048zm8.14 0a.163.163 0 0 0-.117.048l-1.18 1.183L9.237 1.96a.163.163 0 0 0-.134-.047.163.163 0 0 0-.098.047.163.163 0 0 0-.048.117.163.163 0 0 0 .048.115l1.298 1.297a.163.163 0 0 0 .231 0l1.298-1.297a.163.163 0 0 0 0-.232.163.163 0 0 0-.116-.048zm-4.082 0a.163.163 0 0 0-.105.048L6.35 3.143 5.17 1.96a.163.163 0 0 0-.135-.047.163.163 0 0 0-.097.047.163.163 0 0 0 0 .232l1.297 1.297a.163.163 0 0 0 .115.047.163.163 0 0 0 .115-.047l1.297-1.297a.163.163 0 0 0 0-.232.163.163 0 0 0-.097-.047.163.163 0 0 0-.03 0zm-6.93.61a.198.198 0 0 0-.14.059.198.198 0 0 0 0 .28L2.14 4.435a.198.198 0 0 0 .28 0l1.575-1.574a.198.198 0 0 0 .058-.139.198.198 0 0 0-.058-.141.198.198 0 0 0-.28 0L2.28 4.015.847 2.581a.198.198 0 0 0-.14-.059zm4.071 0a.198.198 0 0 0-.14.059.198.198 0 0 0 0 .28L6.21 4.435a.198.198 0 0 0 .139.058.198.198 0 0 0 .14-.058l1.573-1.574a.198.198 0 0 0 0-.28.198.198 0 0 0-.14-.059.198.198 0 0 0-.14.059L6.35 4.015 4.917 2.58a.198.198 0 0 0-.14-.059zm4.069 0a.198.198 0 0 0-.14.059.198.198 0 0 0-.059.14.198.198 0 0 0 .058.14l1.574 1.575a.198.198 0 0 0 .28 0l1.575-1.575a.198.198 0 0 0 0-.28.198.198 0 0 0-.28 0L10.42 4.015 8.986 2.581a.198.198 0 0 0-.14-.059zM6.35 8.207a.198.198 0 0 0-.14.057L4.638 9.84a.198.198 0 0 0 0 .28.198.198 0 0 0 .14.059.198.198 0 0 0 .14-.059L6.35 8.685l1.433 1.434a.198.198 0 0 0 .14.059.198.198 0 0 0 .14-.059.198.198 0 0 0 0-.28L6.49 8.264a.198.198 0 0 0-.139-.057zm-4.1.002a.198.198 0 0 0-.11.056L.566 9.839a.198.198 0 0 0 0 .28.198.198 0 0 0 .14.059.198.198 0 0 0 .14-.059L2.28 8.685l1.435 1.434a.198.198 0 0 0 .28 0 .198.198 0 0 0 .059-.14.198.198 0 0 0-.058-.14L2.42 8.265a.198.198 0 0 0-.172-.056zm8.138 0a.198.198 0 0 0-.109.056L8.705 9.839a.198.198 0 0 0-.058.14.198.198 0 0 0 .058.14.198.198 0 0 0 .14.059.198.198 0 0 0 .14-.059l1.435-1.434 1.433 1.434a.198.198 0 0 0 .28 0 .198.198 0 0 0 0-.28L10.56 8.265a.198.198 0 0 0-.172-.056zm-8.107.954a.163.163 0 0 0-.116.048L.867 10.508a.163.163 0 0 0 0 .232.163.163 0 0 0 .098.047.163.163 0 0 0 .134-.047L2.28 9.557l1.182 1.183a.163.163 0 0 0 .232 0 .163.163 0 0 0 .048-.116.163.163 0 0 0-.048-.116L2.396 9.211a.163.163 0 0 0-.115-.048zm8.139 0a.163.163 0 0 0-.116.048l-1.298 1.297a.163.163 0 0 0-.048.116.163.163 0 0 0 .048.116.163.163 0 0 0 .098.047.163.163 0 0 0 .134-.047l1.182-1.183 1.181 1.183a.163.163 0 0 0 .232 0 .163.163 0 0 0 0-.232l-1.298-1.297a.163.163 0 0 0-.115-.048zm-4.07.001a.163.163 0 0 0-.115.047l-1.297 1.297a.163.163 0 0 0 0 .232.163.163 0 0 0 .097.047.163.163 0 0 0 .134-.047L6.35 9.558l1.18 1.182a.163.163 0 0 0 .106.047.163.163 0 0 0 .029 0 .163.163 0 0 0 .097-.047.163.163 0 0 0 0-.232L6.465 9.211a.163.163 0 0 0-.115-.047z"/></svg>