<svg width="48" height="48" viewBox="0 0 12.7 12.7" xmlns="http://www.w3.org/2000/svg"><path d="M10.178.706a.198.198 0 0 0-.059-.14.198.198 0 0 0-.28 0L8.265 2.14a.198.198 0 0 0 0 .28L9.84 3.995a.198.198 0 1 0 .28-.28L8.685 2.28 10.12.847a.198.198 0 0 0 .06-.14zm0 4.071a.198.198 0 0 0-.059-.14.198.198 0 0 0-.28 0L8.265 6.21a.198.198 0 0 0 0 .28L9.84 8.061a.198.198 0 0 0 .28 0 .198.198 0 0 0 .06-.14.198.198 0 0 0-.06-.14L8.685 6.35l1.435-1.433a.198.198 0 0 0 .06-.14zm0 4.07a.198.198 0 0 0-.059-.14.198.198 0 0 0-.14-.06.198.198 0 0 0-.14.058L8.264 10.28a.198.198 0 0 0 0 .28l1.575 1.575a.198.198 0 0 0 .28-.28L8.685 10.42l1.434-1.434a.198.198 0 0 0 .06-.14zM4.493 6.35a.198.198 0 0 0-.057-.14L2.86 4.638a.198.198 0 0 0-.28 0 .198.198 0 0 0-.059.14c0 .053.022.103.06.14L4.014 6.35 2.581 7.783a.198.198 0 0 0-.059.14c0 .053.022.103.06.14a.198.198 0 0 0 .28 0L4.435 6.49a.198.198 0 0 0 .057-.139zm-.002-4.1a.198.198 0 0 0-.056-.11L2.861.566a.198.198 0 0 0-.28 0 .198.198 0 0 0-.059.14c0 .053.022.103.06.14L4.014 2.28 2.581 3.715a.198.198 0 0 0 0 .28c.037.038.087.06.14.06a.198.198 0 0 0 .14-.059L4.435 2.42a.198.198 0 0 0 .056-.172Zm0 8.138a.198.198 0 0 0-.056-.109L2.861 8.705a.198.198 0 1 0-.279.28l1.433 1.435-1.434 1.433a.198.198 0 0 0 .28.28l1.574-1.573a.198.198 0 0 0 .056-.172z"/></svg>