<svg viewBox="0 0 12.7 12.7" xmlns="http://www.w3.org/2000/svg"><path d="M5.516 1.583c-.371 0-.97.034-.975.595-.006.561.67.589 1.153.589h1.752c.387 0 .634-.025.634.574V6.11c0 .869-.104 2.213.54 2.202.644-.011.644-.777.644-1.496 0-1.573.141-2.311 1.553-2.93 1.363-.543 1.231-.773.874-.837-.429-.077-1.26-.047-1.984.36-.443.272-.443.092-.443-.992 0-.834-.891-.834-1.184-.834zM3.51 3.341c-.955 0-1.126 0-1.126.87v1.19c0 1.598.02 1.823.532 1.828.396.005.594-.209.594-1.312 0-1.416 0-1.416.656-1.424.544-.007 1.632.008 1.632.008.414 0 .455.25.455.864v3.102c0 .452-.08.882-.573.903-.331.014-.805 0-1.126 0-1.044 0-1.028.163-1.044-.999-.011-.89-.563-.46-1.484.414C.82 9.92.073 12.312 1.728 10.399c.782-.837.738-.698.75-.394.022.509.486.509.904.509.344 0 1.01-.01 1.535-.013.729-.006 1.253.013 1.626.013.903 0 .903-.48.903-1.986V4.5c0-1.16-.251-1.16-1.264-1.16H3.51z"/></svg>