<svg viewBox="0 0 12.7 12.7" xmlns="http://www.w3.org/2000/svg">
  <g>
    <path d="m 6.887085,3.3512373 c 0,0.6060453 -0.4874137,1.0973374 -1.0886693,1.0973374 -0.6012542,0 -1.0886672,-0.4912921 -1.0886672,-1.0973374 0,-0.6060387 0.487413,-1.0973309 1.0886672,-1.0973309 0.6012556,0 1.0886693,0.4912922 1.0886693,1.0973309 z M 5.8152322,9.1760377 C 5.8057272,7.277895 5.8334444,6.7615626 5.365618,6.590497 4.8547028,6.3457162 3.8360967,6.0164666 3.6968292,4.9489959 3.6851013,4.572185 3.9946343,4.5292777 4.5293061,4.9099474 4.993063,5.2036088 5.3125118,5.2956156 5.6634155,5.3283396 6.2676689,5.3846913 6.848484,5.1286867 7.1777939,4.7583928 7.5819773,4.3039086 7.8616965,3.6051141 7.6482164,2.761607 7.4955837,2.1950483 7.1031778,1.6456007 6.4994305,1.325573 5.8985014,1.0607903 5.9354343,0.6707398 6.569414,0.66145826 c 0.3809031,0 1.1088994,0.23530053 1.6252913,0.75580304 C 8.810218,2.0380575 9.2557466,3.190872 8.8438325,4.5412045 8.3191549,5.8056892 7.4812469,6.2658352 7.0083351,6.6057984 6.8111082,7.0278236 6.8667807,7.9737462 6.8712899,8.9581928 6.8799645,10.854115 6.9075853,11.975717 6.3404554,12.038329 5.7340579,12.05788 5.8055483,10.727388 5.8152322,9.176011 Z" />
  </g>
</svg>
