<svg viewBox="0 0 12.7 12.7" xmlns="http://www.w3.org/2000/svg"><path d="M11.375 1.307c-.298-.3-.607-.251-2.447 1.006-.876.536-2.772 2.363-1.808.037.18-.395.273-.967-.499-.8-.777.166-2.82 1.898-3.979 3.753-.066.05-.127.1-.187.15a3.404 3.404 0 0 0-.627.636 2.93 2.93 0 0 0-.076.103 3.404 3.404 0 0 0-.04.058 1.878 1.878 0 0 0-.077.122 3.404 3.404 0 0 0-.5 1.77 3.404 3.404 0 0 0 3.405 3.404 3.404 3.404 0 0 0 2.844-1.535c1.48-.911 3.79-3.218 3.772-4.119-.074-.586-.473-.49-.796-.353-2.113.894-.877-.474.037-1.802 1.394-1.944 1.275-2.132.978-2.43Zm-.928.957c-1.534 2.158-2.879 3.2-2.018 4.26.197.243.694.165.959.099.503-.125.55-.028.018.52-1.18 1.214-1.426 1.524-1.477 1.303a3.404 3.404 0 0 0 .014-.304 3.404 3.404 0 0 0-.07-.68 3.404 3.404 0 0 0-2.348-2.577 2.24 2.24 0 0 0-.465-.106 3.404 3.404 0 0 0-.52-.04 3.404 3.404 0 0 0-.272.011c-.228-.049.047-.291 1.224-1.46.456-.453.72-.654.587-.044-.173.669-.068.937.087 1.062 1.048.852 2.11-.584 4.281-2.044Zm-4.47 4.3a2.135 2.135 0 0 1 .698 1.578 2.135 2.135 0 0 1-2.135 2.135 2.135 2.135 0 0 1-2.136-2.135A2.135 2.135 0 0 1 4.54 6.007a2.135 2.135 0 0 1 1.438.557z"/></svg>