<svg viewBox="0 0 12.7 12.7" xmlns="http://www.w3.org/2000/svg">
  <g>
    <path d="M 11.375463,1.3071461 C 11.076808,1.0071534 10.768258,1.0557721 8.9279613,2.3127811 8.0522627,2.8487042 6.1556104,4.6761412 7.1198848,2.3495149 7.2998207,1.9545524 7.3932857,1.3833838 6.6213735,1.5490818 5.8438503,1.7159845 3.8008268,3.4483857 2.6424596,5.3029909 2.5762201,5.353815 2.5146791,5.403505 2.4550508,5.4530905 A 3.4036407,3.4036407 0 0 0 1.8276765,6.0885004 c -0.026722,0.034613 -0.052009,0.068904 -0.076053,0.1030305 a 3.4036407,3.4036407 0 0 0 -0.040466,0.058835 c -0.027274,0.040904 -0.052831,0.081685 -0.076628,0.1219732 A 3.4036407,3.4036407 0 0 0 1.13573,8.1419574 3.4036407,3.4036407 0 0 0 4.5395037,11.545731 3.4036407,3.4036407 0 0 0 7.3839212,10.011163 C 8.8646232,9.0996838 11.1747,6.7931515 11.156198,5.8921949 11.08167,5.3058765 10.683102,5.4015516 10.360071,5.5391899 8.246999,6.4326474 9.4826625,5.0649485 10.396805,3.7374281 11.790861,1.7931499 11.671779,1.6047888 11.375461,1.3071445 Z M 10.447317,2.2639928 C 8.9134531,4.4224785 7.5680764,5.4637046 8.4291615,6.5247356 8.6256885,6.766892 9.1227313,6.688847 9.3877272,6.6228896 9.8909363,6.497642 9.9373369,6.5948032 9.4058074,7.1420637 8.2258234,8.3569581 7.9796017,8.6674667 7.9294994,8.4461748 A 3.4036407,3.4036407 0 0 0 7.9432756,8.141959 3.4036407,3.4036407 0 0 0 7.8723841,7.4614907 3.4036407,3.4036407 0 0 0 5.5247569,4.8848397 C 5.3705581,4.8327959 5.215261,4.7961194 5.0604018,4.778651 A 3.4036407,3.4036407 0 0 0 4.5395034,4.7381865 3.4036407,3.4036407 0 0 0 4.2677185,4.749952 C 4.039511,4.7014684 4.3146415,4.4585824 5.4920431,3.2897172 5.9476918,2.8373668 6.2126211,2.6355642 6.0789509,3.2458047 5.9057439,3.9147871 6.010817,4.1825103 6.1656227,4.308266 7.2135917,5.1595767 8.2758959,3.7241955 10.447317,2.2639928 Z M 5.9779277,6.5640542 a 2.1353026,2.1353026 0 0 1 0.696826,1.5779056 2.1353026,2.1353026 0 0 1 -2.135251,2.1352512 2.1353026,2.1353026 0 0 1 -2.1352509,-2.1352512 2.1353026,2.1353026 0 0 1 2.1352509,-2.1352516 2.1353026,2.1353026 0 0 1 1.438425,0.557346 z" />
  </g>
</svg>