<svg viewBox="0 0 12.7 12.7" xmlns="http://www.w3.org/2000/svg"><path d="M7.295.661c-.178.001-.214.544-.404 2.994-.19 2.454-.31 2.787-.744 3.15-.862.721-1.204 1.376-1.203 2.54 0 1.306.97 2.482 2.401 2.69 1.09.158 1.09-.773.312-.959-1.096-.262-1.76-.98-1.616-2.184.059-.49.428-1.399 1.528-1.42.648-.011 1.323.27 1.657-.04.412-.38-.1-.49-.655-.726-.286-.121-.674-.13-.883-3.118C7.546 1.545 7.496.66 7.295.66ZM3.178 6.126c-.206-.011-.147.2.448.84.432.463.381.575.158.976-.235.421-.32.374-1.004.47-1.098.154-1.185.39-.019.625.783.158.77.254.825.704.05.42.081.546-.33 1.018-.778.89-.356.843.421.342.328-.211.457-.203.786.108.571.538 1.177.77.847.305-.105-.15-.258-.358-.475-.728-.547-.932-.558-2.202-.054-3.02.321-.522.458-.721.054-.805-.167-.035-.318-.085-.665-.32-.476-.324-.831-.507-.992-.515ZM7.672 8.18a1.017 1.017 0 1 0 0 2.033 1.017 1.017 0 0 0 0-2.033Z"/></svg>