<svg viewBox="0 0 12.7 12.7" xmlns="http://www.w3.org/2000/svg"><path d="M3.294 10.733c-1.086-.26-1.265-.974.27-.908.35 0 .52-.013.53-.18.139-2.374-1.44-6.897-1.57-7.236-.3-.777-.329-.965.55-.253.765.62 3.963 3.335 5.842 3.53.211.022.3-.1.251-.538-.073-.663-.024-1.034.399-1.195.61-.232.824.686.797 1.5-.11 3.331-2.642 5.781-5.516 5.516-.818-.076-.888-.076-1.553-.236Zm5.178-3.338c.188-.274.172-.39.02-.442-.765-.254-3.118-1.106-4.02-2.144-.176-.203-.163-.05-.086.145.511 1.295.704 2.686.661 4.306-.007.27.04.3.275.272 1.526-.226 2.379-1.006 3.15-2.137Z"/></svg>