<svg viewBox="0 0 12.7 12.7" xmlns="http://www.w3.org/2000/svg">
  <g>
    <path d="M 3.2942156,10.733433 C 2.2080413,10.472768 2.0286779,9.758919 3.563191,9.8253775 3.9144635,9.8246016 4.0844179,9.8116823 4.0941181,9.6456869 4.2329109,7.270671 2.6544593,2.7477196 2.5238821,2.408582 2.2247504,1.6316702 2.1950147,1.443677 3.0731149,2.1556517 3.8390141,2.776652 7.0373243,5.4909333 8.9156231,5.6861501 9.1270086,5.708122 9.2153481,5.5865544 9.1672292,5.1481068 9.0944618,4.4850599 9.1426106,4.1144223 9.565814,3.9533694 10.175671,3.7213093 10.390086,4.6391102 10.363176,5.4533297 10.253092,8.7840548 7.7211787,11.234379 4.8465468,10.968609 4.0290073,10.893023 3.9587996,10.892922 3.2942156,10.733433 Z M 8.4721596,7.3948172 C 8.6597645,7.1210378 8.6438141,7.0042757 8.4910933,6.9534434 7.7268205,6.6990528 5.3743049,5.8470487 4.4724827,4.8086175 4.2964268,4.6058931 4.3093289,4.7596309 4.3861915,4.954435 4.8971363,6.2493757 5.0901777,7.6403995 5.0473239,9.2603595 5.04012,9.5302941 5.0864599,9.5593447 5.321956,9.5323011 6.848382,9.3064889 7.7007791,8.5261076 8.4721596,7.3948172 Z" />
  </g>
</svg>
