<svg viewBox="0 0 12.7 12.7" xmlns="http://www.w3.org/2000/svg"><path d="M9.087 2.511c-.218.22-.507.673-.158.694.425.079.498.293.508.609.011.335-.236.369-.41.417-.95.262-1.752.739-2.55.762h-.082c-.857 0-1.436-.365-2.369-.661-1.447-.46-2.377-.868-2.715-.6-.362.285.174 1.5.544 2.242.454.91.77 1.685 2.014 1.742.545.024 1.115-.256 1.407-.403.378-.19.833-.402 1.12-.402.298.098 1.033.18.824.49-.42.623-1.4 2.404-1.419 2.726-.05.872 2.022-1.715 2.306-2.196.18-.306.33-.26.601-.223 1.344.182 1.704-.824 2.15-1.734.365-.742.886-1.95.536-2.242-.124-.103-.266-.103-.56-.03-.126.033-.13-.113-.15-.327-.042-.424-1.102-1.293-1.597-.864ZM2.596 4.894c.17-.006.466.057.957.224.483.164.973.385 1.313.564.535.28.71.413.44.575-.298.18-1.098.257-1.526.276-.369.015-.741.128-1.266-1.106-.11-.26-.243-.521.082-.533Zm7.472.006c.464-.05.09.67-.083 1.002-.247.408-.443.598-.857.613-.584.02-1.03.009-1.702-.304-.258-.14.1-.33.472-.53a9.42 9.42 0 0 1 1.292-.563c.303-.084.607-.189.878-.218Z"/></svg>