<?xml version="1.0" encoding="UTF-8" standalone="no"?>
<!-- Created with Inkscape (http://www.inkscape.org/) -->

<svg
   width="48"
   height="48"
   viewBox="0 0 12.7 12.7"
   version="1.1"
   id="svg866"
   inkscape:version="1.1 (c68e22c387, 2021-05-23)"
   sodipodi:docname="drk.svg"
   xmlns:inkscape="http://www.inkscape.org/namespaces/inkscape"
   xmlns:sodipodi="http://sodipodi.sourceforge.net/DTD/sodipodi-0.dtd"
   xmlns="http://www.w3.org/2000/svg"
   xmlns:svg="http://www.w3.org/2000/svg">
  <sodipodi:namedview
     id="namedview868"
     pagecolor="#ffffff"
     bordercolor="#999999"
     borderopacity="1"
     inkscape:pageshadow="0"
     inkscape:pageopacity="0"
     inkscape:pagecheckerboard="0"
     inkscape:document-units="mm"
     showgrid="true"
     units="px"
     inkscape:zoom="12.443434"
     inkscape:cx="17.880916"
     inkscape:cy="26.399465"
     inkscape:window-width="2560"
     inkscape:window-height="1361"
     inkscape:window-x="-9"
     inkscape:window-y="-9"
     inkscape:window-maximized="1"
     inkscape:current-layer="layer1"
     inkscape:object-nodes="false"
     inkscape:snap-object-midpoints="true">
    <inkscape:grid
       type="xygrid"
       id="grid949"
       spacingx="1.5875"
       spacingy="1.5875"
       empspacing="4" />
  </sodipodi:namedview>
  <defs
     id="defs863" />
  <g
     inkscape:label="Layer 1"
     inkscape:groupmode="layer"
     id="layer1">
    <path
       id="path445-5"
       style="fill:#000000;stroke-width:0.22362"
       d="m 6.3500029,0.59314853 c 0.1152909,0.007019 0.2314754,0.0923529 0.2767984,1.10194007 0.070153,1.5627952 0.2944639,1.3926526 1.3554776,0.8120419 C 9.4138077,1.7237624 10.042087,1.9432098 8.6151394,3.0918409 7.9109093,3.6559757 7.1861654,3.6436697 8.6672397,4.344462 10.510998,5.2603739 12.548738,7.0876334 8.4815063,5.2682054 7.7841855,5.0143345 6.5884788,4.0997955 7.1263606,5.4290419 7.2706384,5.7839543 7.7953172,6.2058257 8.0962883,6.3429569 8.7022248,6.6190409 9.0430125,6.734056 8.643983,7.04985 8.2296961,7.377724 7.632472,8.1230272 7.3916918,8.6945717 7.2337471,9.0797058 7.0910913,9.3902337 6.8092731,10.612812 6.5809414,11.603371 6.4458168,12.020406 6.3500239,12.106851 V 8.0050403 C 6.5115798,7.9935927 6.6769855,7.8297136 6.8816731,7.5130317 7.3781119,6.8437418 7.3017477,6.8758168 6.7870025,6.4274699 6.5946188,6.2598976 6.4664983,6.1518457 6.3500281,6.1133317 Z m 0,0 C 6.2347126,0.60016729 6.1185281,0.68550146 6.0732115,1.6950886 6.0030589,3.2578838 5.7787412,3.0877412 4.7177275,2.5071305 3.2862029,1.7237624 2.6579166,1.9432098 4.0848706,3.0918409 4.7890964,3.6559757 5.5138473,3.6436697 4.0327632,4.344462 2.1890054,5.2603739 0.15126008,7.0876334 4.218491,5.2682054 4.9158203,5.0143345 6.1115276,4.0997955 5.5736458,5.4290419 5.4293673,5.7839543 4.9046829,6.2058257 4.6037154,6.3429569 3.9977796,6.6190409 3.6569911,6.734056 4.0560206,7.04985 c 0.4142877,0.327874 1.0115068,1.0731772 1.2522941,1.6447217 0.1579384,0.3851341 0.3006004,0.695662 0.5824123,1.9182403 0.2283374,0.990559 0.3634627,1.407594 0.4592548,1.494039 V 8.0050403 C 6.1884302,7.9935927 6.0230252,7.8297136 5.8183376,7.5130317 5.3218988,6.8437418 5.398263,6.8758168 5.9130018,6.4274699 6.1053918,6.2598976 6.2335124,6.1518457 6.3499818,6.1133317 Z" />
  </g>
</svg>
