<?xml version="1.0" encoding="UTF-8" standalone="no"?>
<!-- Created with Inkscape (http://www.inkscape.org/) -->

<svg
   width="48"
   height="48"
   viewBox="0 0 12.7 12.7"
   version="1.1"
   id="svg866"
   inkscape:version="1.1 (c68e22c387, 2021-05-23)"
   sodipodi:docname="gnb.svg"
   xmlns:inkscape="http://www.inkscape.org/namespaces/inkscape"
   xmlns:sodipodi="http://sodipodi.sourceforge.net/DTD/sodipodi-0.dtd"
   xmlns="http://www.w3.org/2000/svg"
   xmlns:svg="http://www.w3.org/2000/svg">
  <sodipodi:namedview
     id="namedview868"
     pagecolor="#ffffff"
     bordercolor="#999999"
     borderopacity="1"
     inkscape:pageshadow="0"
     inkscape:pageopacity="0"
     inkscape:pagecheckerboard="0"
     inkscape:document-units="mm"
     showgrid="true"
     units="px"
     inkscape:zoom="12.443434"
     inkscape:cx="17.880916"
     inkscape:cy="26.399465"
     inkscape:window-width="2560"
     inkscape:window-height="1361"
     inkscape:window-x="-9"
     inkscape:window-y="-9"
     inkscape:window-maximized="1"
     inkscape:current-layer="layer1"
     inkscape:object-nodes="false"
     inkscape:snap-object-midpoints="true">
    <inkscape:grid
       type="xygrid"
       id="grid949"
       spacingx="1.5875"
       spacingy="1.5875"
       empspacing="4" />
  </sodipodi:namedview>
  <defs
     id="defs863" />
  <g
     inkscape:label="Layer 1"
     inkscape:groupmode="layer"
     id="layer1">
    <path
       id="path17559"
       style="fill:#000000;stroke-width:0.22402"
       d="M 11.035172,1.816921 C 10.810452,1.5922023 10.395872,1.9682193 9.3567492,2.6847494 8.7364063,3.1125119 8.6112747,3.1022482 8.264785,2.9380929 7.904544,2.7674221 7.2471337,2.4576236 6.5611386,2.4019707 6.0805249,2.3629796 6.0775699,2.1459354 5.9943156,1.9015416 5.7680633,1.2373566 5.1904034,1.3435314 5.0918652,1.908431 5.0426712,2.1907144 5.0406371,2.5375069 4.6455249,2.6558293 2.9386374,3.1670116 1.8280966,4.9397798 1.7826712,6.4514701 1.7628559,7.1100647 1.9352113,7.386365 2.3305973,7.3731158 2.730597,7.3597142 2.8451711,7.1313237 2.9048126,6.6398706 3.2382034,4.5091441 4.6729492,3.2278193 7.0191803,3.7864758 7.2911951,3.8512449 7.8137204,4.0384989 7.4914627,4.3445368 6.8547871,4.94916 6.2895225,5.4635599 5.6667062,6.0863803 4.9804332,6.7726526 3.295185,8.3534729 2.3912361,9.5994583 1.9469036,10.199412 1.4027199,10.91896 1.6678944,11.184134 1.8926057,11.408851 2.1738998,11.10318 3.2243777,10.4034 c 0.3128931,-0.208434 0.7684447,0.08855 1.075886,0.219251 1.2522415,0.532347 2.4567398,0.536824 3.6865528,-0.134996 0.2811253,-0.15357 0.4535119,0.09856 0.7948625,0.275749 0.5219832,0.270952 0.7365502,-0.07167 0.641264,-0.551872 C 9.3692627,9.9408401 9.2885317,9.5760153 9.4422499,9.357936 9.8388302,8.7954343 10.045973,8.3496936 10.169047,7.8932159 10.356037,7.1996335 10.228829,6.7441753 9.7678778,6.6887742 9.3284372,6.635955 9.0991207,7.2762197 9.0041569,7.6026152 8.5215526,9.2614611 6.5770418,10.188344 5.1817431,9.6215571 4.5358645,9.3591908 4.4411204,9.3757961 5.1237486,8.7448763 5.7611861,8.1557224 6.4191543,7.5317612 7.0363137,6.9146058 7.7225885,6.2283327 9.3231602,4.6475116 10.227111,3.401528 c 0.41656,-0.562458 1.005937,-1.2298597 0.84885,-1.5296053 -0.01049,-0.01998 -0.0243,-0.0385 -0.04082,-0.055075 z"
       sodipodi:nodetypes="csssscssscssscssssssssssssscccc" />
  </g>
</svg>
