<?xml version="1.0" encoding="UTF-8" standalone="no"?>
<!-- Created with Inkscape (http://www.inkscape.org/) -->

<svg
   width="48"
   height="48"
   viewBox="0 0 12.7 12.7"
   version="1.1"
   id="svg866"
   inkscape:version="1.1 (c68e22c387, 2021-05-23)"
   sodipodi:docname="pld.svg"
   xmlns:inkscape="http://www.inkscape.org/namespaces/inkscape"
   xmlns:sodipodi="http://sodipodi.sourceforge.net/DTD/sodipodi-0.dtd"
   xmlns="http://www.w3.org/2000/svg"
   xmlns:svg="http://www.w3.org/2000/svg">
  <sodipodi:namedview
     id="namedview868"
     pagecolor="#ffffff"
     bordercolor="#999999"
     borderopacity="1"
     inkscape:pageshadow="0"
     inkscape:pageopacity="0"
     inkscape:pagecheckerboard="0"
     inkscape:document-units="mm"
     showgrid="true"
     units="px"
     inkscape:zoom="12.443434"
     inkscape:cx="17.880916"
     inkscape:cy="26.399465"
     inkscape:window-width="2560"
     inkscape:window-height="1361"
     inkscape:window-x="-9"
     inkscape:window-y="-9"
     inkscape:window-maximized="1"
     inkscape:current-layer="layer1"
     inkscape:object-nodes="false"
     inkscape:snap-object-midpoints="true">
    <inkscape:grid
       type="xygrid"
       id="grid949"
       spacingx="1.5875"
       spacingy="1.5875"
       empspacing="4" />
  </sodipodi:namedview>
  <defs
     id="defs863" />
  <g
     inkscape:label="Layer 1"
     inkscape:groupmode="layer"
     id="layer1">
    <path
       id="path10066"
       style="fill:#000000;stroke-width:0.214837"
       d="m 6.3499837,1.1770727 c -0.2224392,0 -0.2908581,0.2006425 -0.3993556,0.4110047 -0.034832,0.067522 -0.2485279,0.5856571 -0.6555254,0.5856571 H 4.1266085 c -1.0102426,0 -0.8489825,-0.7753744 -1.3283593,-0.7905325 -0.5355129,0 -0.5353114,0.557692 -0.5353114,1.6553364 0,0.8799684 0.015826,1.6840202 0.012608,2.2000876 -0.012729,2.0391742 0.1657299,2.8097871 1.1625137,4.132994 1.0426101,1.38404 2.7199249,2.151308 2.9119442,2.151308 0.19202,0 1.8693349,-0.767268 2.9119454,-2.151308 0.9967829,-1.3232069 1.1752289,-2.0938198 1.1625129,-4.132994 -0.003,-0.5160674 0.0126,-1.3201192 0.0126,-2.2000876 0,-1.0976444 1.96e-4,-1.6553364 -0.5353112,-1.6553364 C 9.4223744,1.3983693 9.5836345,2.1737345 8.5733914,2.1737345 H 7.4049011 c -0.4069976,0 -0.6206916,-0.5181323 -0.6555254,-0.5856571 C 6.6408784,1.3777152 6.5724585,1.1770727 6.3500201,1.1770727 Z M 5.4669276,3.1716571 c 0.4153292,0.00364 0.4154088,0.068263 0.4154088,0.5264996 V 9.626841 c 0,0.3310395 -0.3972673,0.039277 -0.6593017,-0.1869292 C 4.3222693,8.6623268 3.3986986,7.9927025 3.3986986,5.0425685 c 0,-0.5944931 -0.00121,-0.8305063 0,-1.2651092 0.00181,-0.6013816 -0.022104,-0.6013937 0.5158001,-0.6013937 h 0.9831302 c 0.2461221,0 0.4308576,-0.00553 0.5692987,-0.00423 z m 1.7661115,0 c 0.1384411,-0.00122 0.3231774,0.00423 0.5692994,0.00423 h 0.9831304 c 0.5379249,0 0.5141677,1.21e-5 0.5157996,0.601399 0.00121,0.4345975 0,0.6706107 0,1.2651039 0,2.9501401 -0.9235711,3.6197574 -1.8243365,4.3973424 C 7.2148976,9.6659455 6.8176303,9.9577179 6.8176303,9.6266774 V 3.6979946 c 0,-0.4582389 7.96e-5,-0.5228831 0.4154088,-0.5264996 z" />
  </g>
</svg>
