<?xml version="1.0" encoding="UTF-8" standalone="no"?>
<!-- Created with Inkscape (http://www.inkscape.org/) -->

<svg
   width="48"
   height="48"
   viewBox="0 0 12.7 12.7"
   version="1.1"
   id="svg866"
   inkscape:version="1.1 (c68e22c387, 2021-05-23)"
   sodipodi:docname="rdm.svg"
   xmlns:inkscape="http://www.inkscape.org/namespaces/inkscape"
   xmlns:sodipodi="http://sodipodi.sourceforge.net/DTD/sodipodi-0.dtd"
   xmlns="http://www.w3.org/2000/svg"
   xmlns:svg="http://www.w3.org/2000/svg">
  <sodipodi:namedview
     id="namedview868"
     pagecolor="#ffffff"
     bordercolor="#999999"
     borderopacity="1"
     inkscape:pageshadow="0"
     inkscape:pageopacity="0"
     inkscape:pagecheckerboard="0"
     inkscape:document-units="mm"
     showgrid="true"
     units="px"
     inkscape:zoom="8.7988366"
     inkscape:cx="1.8752479"
     inkscape:cy="16.877231"
     inkscape:window-width="2560"
     inkscape:window-height="1361"
     inkscape:window-x="-9"
     inkscape:window-y="-9"
     inkscape:window-maximized="1"
     inkscape:current-layer="layer1"
     inkscape:object-nodes="false"
     inkscape:snap-object-midpoints="true"
     inkscape:snap-grids="false">
    <inkscape:grid
       type="xygrid"
       id="grid949"
       spacingx="1.5875"
       spacingy="1.5875"
       empspacing="4" />
  </sodipodi:namedview>
  <defs
     id="defs863" />
  <g
     inkscape:label="Layer 1"
     inkscape:groupmode="layer"
     id="layer1">
    <path
       id="path1108"
       style="fill:#000000;stroke-width:0.23039"
       d="M 7.2945431,0.66145833 C 7.1165248,0.66211162 7.0811144,1.2052626 6.8912299,3.6549027 6.7010362,6.1085325 6.5804964,6.4422416 6.147222,6.8046664 5.2845555,7.5262647 4.9431559,8.1808377 4.9437437,9.3449276 4.9443971,10.651253 5.9143335,11.827334 7.3449629,12.034699 8.4342974,12.192599 8.4346244,11.262148 7.6571383,11.076236 6.5612005,10.814175 5.8970622,10.095914 6.0412506,8.8916855 6.099924,8.4016425 6.4685695,7.4934219 7.5693921,7.4728884 8.2166648,7.4608069 8.8921009,7.7415652 9.2261153,7.4323962 9.6376627,7.0514567 9.1256479,6.9419939 8.5713904,6.706462 8.2851725,6.5848324 7.8970251,6.5752649 7.6883696,3.5877113 7.5456758,1.5446119 7.4958896,0.66050879 7.2945431,0.6614627 Z M 3.1783492,6.1256429 C 2.9723259,6.1146637 3.0309309,6.3263536 3.6258246,6.9655132 4.0576667,7.429486 4.0073278,7.541252 3.7840046,7.9416542 3.54876,8.3634313 3.4637725,8.3161613 2.7798364,8.4121176 1.68245,8.5660815 1.5951197,8.8011622 2.7611408,9.0369491 c 0.7832907,0.1583916 0.770702,0.2537335 0.8246038,0.7039721 0.050251,0.4197588 0.081587,0.5464958 -0.3305123,1.0185208 -0.7770507,0.890039 -0.3547739,0.84226 0.4222629,0.341434 0.3273582,-0.210996 0.4564851,-0.202969 0.7856695,0.107653 0.5708849,0.538704 1.1769907,0.770985 0.8471251,0.305465 C 5.2046079,11.36485 5.0524725,11.155819 4.8350754,10.785662 4.2876554,9.8535705 4.2766218,8.584159 4.7810832,7.7658267 5.1024675,7.2444754 5.2390763,7.0447905 4.8350754,6.9609224 4.6682869,6.9263092 4.5174662,6.8757997 4.1702264,6.6403075 3.6937156,6.3171448 3.3385927,6.1341528 3.1783514,6.1256429 Z m 4.4933017,2.0549597 c -0.561579,2.5e-5 -1.0168207,0.4552659 -1.0168487,1.0168472 2.8e-5,0.5615753 0.4552697,1.0168162 1.0168487,1.0168482 C 8.2333607,10.214455 8.6888085,9.7591545 8.6888363,9.1974498 8.6888085,8.6357384 8.2333607,8.1804394 7.6716509,8.1806026 Z"
       sodipodi:nodetypes="ssscsssssssssssssssssssssssccccc" />
  </g>
</svg>
