<?xml version="1.0" encoding="UTF-8" standalone="no"?>
<!-- Created with Inkscape (http://www.inkscape.org/) -->

<svg
   width="48"
   height="48"
   viewBox="0 0 12.7 12.7"
   version="1.1"
   id="svg866"
   inkscape:version="1.1 (c68e22c387, 2021-05-23)"
   sodipodi:docname="sam.svg"
   xmlns:inkscape="http://www.inkscape.org/namespaces/inkscape"
   xmlns:sodipodi="http://sodipodi.sourceforge.net/DTD/sodipodi-0.dtd"
   xmlns="http://www.w3.org/2000/svg"
   xmlns:svg="http://www.w3.org/2000/svg">
  <sodipodi:namedview
     id="namedview868"
     pagecolor="#ffffff"
     bordercolor="#999999"
     borderopacity="1"
     inkscape:pageshadow="0"
     inkscape:pageopacity="0"
     inkscape:pagecheckerboard="0"
     inkscape:document-units="mm"
     showgrid="true"
     units="px"
     inkscape:zoom="4.3994183"
     inkscape:cx="-37.845913"
     inkscape:cy="20.570901"
     inkscape:window-width="2560"
     inkscape:window-height="1361"
     inkscape:window-x="-9"
     inkscape:window-y="-9"
     inkscape:window-maximized="1"
     inkscape:current-layer="layer1"
     inkscape:object-nodes="false"
     inkscape:snap-object-midpoints="true"
     inkscape:snap-grids="true">
    <inkscape:grid
       type="xygrid"
       id="grid949"
       spacingx="1.5875"
       spacingy="1.5875"
       empspacing="4" />
  </sodipodi:namedview>
  <defs
     id="defs863" />
  <g
     inkscape:label="Layer 1"
     inkscape:groupmode="layer"
     id="layer1">
    <path
       id="path86127-3"
       style="fill:#000000;stroke:#000000;stroke-width:0;stroke-linecap:butt;stroke-linejoin:miter;stroke-miterlimit:4;stroke-dasharray:none;stroke-opacity:1"
       d="M 6.0865811,1.5733301 C 5.9816835,1.57427 5.8746548,1.5754449 5.7664409,1.5848907 3.0534908,1.8193791 1.1444953,4.0111206 1.6882988,6.9699756 1.9332104,8.3025466 2.9253804,9.7189676 3.3046144,9.3474994 3.4975151,9.1585505 3.4872054,8.9982685 3.1093295,8.4545466 2.8364319,8.0618761 2.6348106,7.4860077 2.6348106,6.8797598 c 0,-0.8478089 0.076374,-1.024087 0.4134318,-0.7781672 0.3545862,0.3162984 0.7543567,0.6802624 1.4523908,0.6992857 0.6094952,0.016612 0.7393554,0.2110797 0.6362937,0.8630859 -0.020043,0.1267711 -0.066693,0.5813378 -0.072168,0.7447355 -0.012759,0.3820114 0.267021,0.3249242 1.2869387,0.3249242 1.0199202,0 1.2997314,0.057082 1.2869419,-0.3249242 C 7.4991059,7.0678342 7.3293476,6.7428105 7.9691439,6.6070643 8.0938386,6.606281 8.5935739,6.5943758 8.9479025,6.9658753 9.1226752,7.1491211 9.4560213,7.6823171 9.3400926,8.2277199 8.9576381,9.6068156 7.0246693,10.680481 4.8270135,10.196224 4.0479165,10.024548 3.9440207,10.50077 5.0244938,10.899785 8.5701018,11.921782 11.353868,9.3595989 11.146224,5.9631943 11.078897,4.8618871 10.402848,3.6860656 9.8871927,3.488189 9.6520252,3.3979505 9.4994237,3.4498808 9.7380883,4.2428912 10.028316,5.207253 10.119421,6.2366879 9.915502,6.2366879 9.853141,6.2366879 9.5739692,6.0385708 9.2157239,5.8683919 8.8766395,5.7073157 8.4187221,5.5472859 7.8927327,5.6271919 7.5465436,5.6797864 7.3373178,5.8344557 7.2287421,5.6101173 7.0835539,5.310122 7.0775206,5.3396392 6.8389892,4.5181518 6.7771525,4.3021761 6.579745,3.5236932 6.351698,3.5236932 c -0.2535868,0 -0.4114071,0.6983215 -0.4947969,0.9944586 C 5.4884499,5.826628 5.3439025,5.7026249 4.9913135,5.7299051 4.4493945,5.771824 3.6932833,5.4744956 3.3623062,4.927759 3.1433463,4.5660625 3.3028036,3.9779904 3.822997,3.6876822 4.3881774,3.3722665 4.7262451,3.1094594 5.420692,2.7226609 5.9372097,2.4349671 6.8889222,2.3972174 7.6337642,2.6130247 8.9574455,2.9965375 8.9993049,2.3113446 7.9144355,1.8738729 7.4623243,1.6915585 6.8207773,1.5657946 6.0864856,1.5732659 Z m 0.2651216,3.8671973 c 0.038355,-3.2e-6 0.1349834,0.055727 0.1563697,0.3780458 0.048467,0.7303246 0.056816,1.2260106 0.086028,1.5216644 C 6.614253,7.5441428 6.7201218,7.6069288 6.3517027,7.6037653 5.9832861,7.6069766 6.0891549,7.544153 6.1093052,7.3402376 6.1385279,7.0445838 6.1403998,6.5488978 6.1888588,5.8185732 6.2102569,5.4962517 6.3133452,5.4405274 6.3517027,5.4405274 Z"
       sodipodi:nodetypes="scsssscsscsccscscssssssscsssssssssssscssss" />
  </g>
</svg>
