<?xml version="1.0" encoding="UTF-8" standalone="no"?>
<!-- Created with Inkscape (http://www.inkscape.org/) -->

<svg
   width="48"
   height="48"
   viewBox="0 0 12.7 12.7"
   version="1.1"
   id="svg866"
   inkscape:version="1.1 (c68e22c387, 2021-05-23)"
   sodipodi:docname="sge.svg"
   xmlns:inkscape="http://www.inkscape.org/namespaces/inkscape"
   xmlns:sodipodi="http://sodipodi.sourceforge.net/DTD/sodipodi-0.dtd"
   xmlns="http://www.w3.org/2000/svg"
   xmlns:svg="http://www.w3.org/2000/svg">
  <sodipodi:namedview
     id="namedview868"
     pagecolor="#ffffff"
     bordercolor="#999999"
     borderopacity="1"
     inkscape:pageshadow="0"
     inkscape:pageopacity="0"
     inkscape:pagecheckerboard="0"
     inkscape:document-units="mm"
     showgrid="true"
     units="px"
     inkscape:zoom="12.443434"
     inkscape:cx="17.880916"
     inkscape:cy="26.399465"
     inkscape:window-width="2560"
     inkscape:window-height="1361"
     inkscape:window-x="-9"
     inkscape:window-y="-9"
     inkscape:window-maximized="1"
     inkscape:current-layer="layer1"
     inkscape:object-nodes="false"
     inkscape:snap-object-midpoints="true">
    <inkscape:grid
       type="xygrid"
       id="grid949"
       spacingx="1.5875"
       spacingy="1.5875"
       empspacing="4" />
  </sodipodi:namedview>
  <defs
     id="defs863" />
  <g
     inkscape:label="Layer 1"
     inkscape:groupmode="layer"
     id="layer1">
    <path
       id="path1795"
       style="fill:#000000;stroke-width:0.139279"
       d="m 6.3500018,0.64034034 c -0.1260315,0 -0.2772751,0.0642635 -0.4000195,0.39287956 -0.1746674,0.467631 -0.9597472,1.1898766 -1.3670565,1.3583505 -0.3776987,0.1562257 -0.4043339,0.4502782 -0.09187,0.6820426 0.251736,0.1867198 0.7801389,0.5916724 1.0005311,0.9240275 0.3608245,0.5441412 0.3702004,0.7055432 0.4201159,2.1487504 0.01967,0.5687635 0.075709,1.4695897 0.1153171,1.6245702 0.069567,0.2721692 0.2815475,0.2719568 0.3229823,0.2719576 0.041441,-8e-7 0.2534165,2.116e-4 0.322983,-0.2719576 C 6.7126,7.6159806 6.7686265,6.7151544 6.788302,6.1463909 6.8382144,4.7031837 6.8565247,4.5417817 7.2173522,3.9976405 7.4377444,3.6652854 7.957213,3.2603328 8.208949,3.073613 8.5214125,2.8418486 8.4947773,2.5477963 8.1170785,2.3915704 7.70977,2.2230965 6.9246895,1.5008509 6.750022,1.0332199 6.6272776,0.70460335 6.476034,0.64034034 6.3500018,0.64034034 Z M 2.6412,3.4946921 C 2.620086,3.4941295 2.600844,3.4967121 2.584733,3.5013821 2.4974639,3.5267303 2.3901881,3.6442895 2.3651067,3.8646302 2.3137658,4.3149722 1.9476431,4.93252 1.5789399,5.2263261 1.2886482,5.4576477 1.2601636,5.6383627 1.6832517,5.7645043 2.2070279,5.9336634 2.9120209,6.3860192 3.072797,6.8504199 3.7486792,8.8026955 3.8445287,9.2109977 4.1130412,9.137916 4.3829477,9.0644529 4.2464327,8.6332538 3.8723594,6.5908898 3.7976176,6.1827915 4.1596918,5.3944841 4.522154,4.9806564 4.820342,4.65539 4.7030807,4.5150006 4.3350665,4.4654203 3.8676431,4.4024475 3.2359397,4.0602978 2.9603544,3.7002131 2.8626944,3.553215 2.7326839,3.4971304 2.6412,3.4946921 Z m 7.417604,0 C 9.9673224,3.4971366 9.8373096,3.5532158 9.7396497,3.7002131 9.4640643,4.0602978 8.8323612,4.4024475 8.3649378,4.4654203 7.9969236,4.5150004 7.8796624,4.65539 8.1778481,4.9806566 8.5403103,5.3944843 8.9023844,6.1827918 8.8276411,6.5908896 8.4535678,8.6332523 8.3170528,9.0644514 8.5869586,9.1379152 8.8554718,9.2109887 8.9513206,8.8026947 9.6272032,6.8504197 9.7879785,6.386019 10.492972,5.9336632 11.016748,5.7645041 11.439836,5.6383626 11.411351,5.4576476 11.12106,5.2263259 10.752356,4.9325198 10.386238,4.314972 10.334897,3.8646299 10.309817,3.6442894 10.202536,3.5267296 10.115266,3.5013836 c -0.0161,-0.00467 -0.03534,-0.00726 -0.05647,-0.00669 z M 5.6408753,7.4473857 C 5.5061072,7.447575 5.3177525,7.5772194 4.9772062,7.8321393 4.6653454,8.065587 4.7545583,8.1470319 5.2475536,8.6360619 c 0.5600508,0.555546 0.8029746,0.6979598 0.804827,1.6771471 9.931e-4,0.55184 0.00784,1.329084 0.088041,1.563392 0.058689,0.171448 0.1538385,0.183058 0.2095801,0.183058 0.055741,0 0.1508937,-0.0116 0.2095809,-0.183058 0.080168,-0.234308 0.087025,-1.011552 0.088041,-1.563392 C 6.6495334,9.3340217 6.8923999,9.1916079 7.4524508,8.6360619 7.9454461,8.1470319 8.0346612,8.065587 7.7228012,7.8321393 7.3822541,7.5772194 7.1938971,7.447575 7.059129,7.4473857 6.9978653,7.4472996 6.9476832,7.4737513 6.8993131,7.5276826 6.7837416,7.6565162 6.746318,7.7299441 6.8911777,7.8660742 7.1021565,8.0643809 7.0985724,8.1391265 6.8217938,8.4075985 6.6000519,8.6226839 6.4805883,8.7261166 6.3499995,8.7177925 6.2194114,8.7261341 6.0999479,8.6226839 5.8782059,8.4075985 5.6014274,8.1391265 5.5978455,8.0643809 5.808822,7.8660742 5.9536818,7.7299441 5.9162452,7.6565162 5.8006866,7.5276826 5.7523173,7.4737537 5.7021276,7.4472996 5.6408707,7.4473857 Z"
       sodipodi:nodetypes="ssssssssscssssssccscssscscsscscccscscsssssscssccsssccscscsss" />
  </g>
</svg>
