<?xml version="1.0" encoding="UTF-8" standalone="no"?>
<!-- Created with Inkscape (http://www.inkscape.org/) -->

<svg
   width="48"
   height="48"
   viewBox="0 0 12.7 12.7"
   version="1.1"
   id="svg866"
   inkscape:version="1.1 (c68e22c387, 2021-05-23)"
   sodipodi:docname="war.svg"
   xmlns:inkscape="http://www.inkscape.org/namespaces/inkscape"
   xmlns:sodipodi="http://sodipodi.sourceforge.net/DTD/sodipodi-0.dtd"
   xmlns="http://www.w3.org/2000/svg"
   xmlns:svg="http://www.w3.org/2000/svg">
  <sodipodi:namedview
     id="namedview868"
     pagecolor="#ffffff"
     bordercolor="#999999"
     borderopacity="1"
     inkscape:pageshadow="0"
     inkscape:pageopacity="0"
     inkscape:pagecheckerboard="0"
     inkscape:document-units="mm"
     showgrid="true"
     units="px"
     inkscape:zoom="12.443434"
     inkscape:cx="17.880916"
     inkscape:cy="26.399465"
     inkscape:window-width="2560"
     inkscape:window-height="1361"
     inkscape:window-x="-9"
     inkscape:window-y="-9"
     inkscape:window-maximized="1"
     inkscape:current-layer="layer1"
     inkscape:object-nodes="false"
     inkscape:snap-object-midpoints="true">
    <inkscape:grid
       type="xygrid"
       id="grid949"
       spacingx="1.5875"
       spacingy="1.5875"
       empspacing="4" />
  </sodipodi:namedview>
  <defs
     id="defs863" />
  <g
     inkscape:label="Layer 1"
     inkscape:groupmode="layer"
     id="layer1">
    <path
       id="path2382"
       style="fill:#000000;stroke-width:0.196227"
       d="M 3.8774316,2.5671956 C 3.3757198,2.5749823 2.3299878,3.3738549 1.8748291,4.7253063 1.5267558,5.7588026 1.3564482,7.2307994 2.2548262,8.7279219 2.4108128,8.987871 2.9256671,9.6145073 3.1579659,9.7983526 3.910688,10.394067 4.3872121,10.135431 4.5483189,9.4838925 4.8721261,8.1743764 5.479065,8.0084566 6.3500007,8.0084566 c 0.8709347,0 1.4778735,0.1659198 1.8016809,1.4754359 0.1611069,0.6515385 0.6376302,0.9101745 1.390353,0.3144601 C 9.7743336,9.6145073 10.289187,8.987871 10.445175,8.7279219 11.343552,7.2307994 11.173245,5.7588026 10.825171,4.7253063 10.370013,3.3738549 9.3242809,2.5749663 8.8225691,2.5671956 8.5237498,2.5627591 8.2932964,2.7998183 8.212331,3.1846192 7.9553995,4.4057565 7.3197158,4.7523227 6.3500007,4.7523227 5.3802847,4.7523227 4.744602,4.4057565 4.4876694,3.1846192 4.4067045,2.7998183 4.176251,2.5625679 3.8774316,2.5671956 Z M 3.5460117,4.1653692 c 0.083759,-9.42e-5 0.1801324,0.096733 0.2943397,0.3728087 0.2828634,0.6490741 1.1444215,1.3138944 2.5096493,1.3138944 1.3652273,0 2.226784,-0.6648203 2.5096481,-1.3138944 C 9.1206939,3.9071496 9.288546,4.2118372 9.4256212,4.4726407 10.018719,5.6011086 10.090368,7.1616855 9.4974765,8.0975636 9.2041959,8.5605098 9.0472873,8.799251 8.8283144,8.1751696 8.4927512,7.2188049 7.4459065,6.8680278 6.3499968,6.8701856 5.2540872,6.8680438 4.2072427,7.2188049 3.8716783,8.1751696 3.6527054,8.799251 3.4957972,8.5605098 3.2025159,8.0975636 2.6096289,7.1616855 2.6812772,5.6011086 3.2743728,4.4726407 3.3514758,4.32594 3.4383148,4.1654946 3.5460038,4.1653669 Z" />
  </g>
</svg>
