<?xml version="1.0" encoding="UTF-8" standalone="no"?>
<!-- Created with Inkscape (http://www.inkscape.org/) -->

<svg
   width="48"
   height="48"
   viewBox="0 0 12.7 12.7"
   version="1.1"
   id="svg866"
   inkscape:version="1.1 (c68e22c387, 2021-05-23)"
   sodipodi:docname="whm.svg"
   xmlns:inkscape="http://www.inkscape.org/namespaces/inkscape"
   xmlns:sodipodi="http://sodipodi.sourceforge.net/DTD/sodipodi-0.dtd"
   xmlns="http://www.w3.org/2000/svg"
   xmlns:svg="http://www.w3.org/2000/svg">
  <sodipodi:namedview
     id="namedview868"
     pagecolor="#ffffff"
     bordercolor="#999999"
     borderopacity="1"
     inkscape:pageshadow="0"
     inkscape:pageopacity="0"
     inkscape:pagecheckerboard="0"
     inkscape:document-units="mm"
     showgrid="true"
     units="px"
     inkscape:zoom="12.443434"
     inkscape:cx="17.880916"
     inkscape:cy="26.399465"
     inkscape:window-width="2560"
     inkscape:window-height="1361"
     inkscape:window-x="-9"
     inkscape:window-y="-9"
     inkscape:window-maximized="1"
     inkscape:current-layer="layer1"
     inkscape:object-nodes="false"
     inkscape:snap-object-midpoints="true">
    <inkscape:grid
       type="xygrid"
       id="grid949"
       spacingx="1.5875"
       spacingy="1.5875"
       empspacing="4" />
  </sodipodi:namedview>
  <defs
     id="defs863" />
  <g
     inkscape:label="Layer 1"
     inkscape:groupmode="layer"
     id="layer1">
    <path
       id="path23107"
       style="fill-rule:evenodd;stroke-width:0.174716"
       d="m 6.887085,3.3512373 c 0,0.6060453 -0.4874137,1.0973374 -1.0886693,1.0973374 -0.6012542,0 -1.0886672,-0.4912921 -1.0886672,-1.0973374 0,-0.6060387 0.487413,-1.0973309 1.0886672,-1.0973309 0.6012556,0 1.0886693,0.4912922 1.0886693,1.0973309 z M 5.8152322,9.1760377 C 5.8057272,7.277895 5.8334444,6.7615626 5.365618,6.590497 4.8547028,6.3457162 3.8360967,6.0164666 3.6968292,4.9489959 3.6851013,4.572185 3.9946343,4.5292777 4.5293061,4.9099474 4.993063,5.2036088 5.3125118,5.2956156 5.6634155,5.3283396 6.2676689,5.3846913 6.848484,5.1286867 7.1777939,4.7583928 7.5819773,4.3039086 7.8616965,3.6051141 7.6482164,2.761607 7.4955837,2.1950483 7.1031778,1.6456007 6.4994305,1.325573 5.8985014,1.0607903 5.9354343,0.6707398 6.569414,0.66145826 c 0.3809031,0 1.1088994,0.23530053 1.6252913,0.75580304 C 8.810218,2.0380575 9.2557466,3.190872 8.8438325,4.5412045 8.3191549,5.8056892 7.4812469,6.2658352 7.0083351,6.6057984 6.8111082,7.0278236 6.8667807,7.9737462 6.8712899,8.9581928 6.8799645,10.854115 6.9075853,11.975717 6.3404554,12.038329 5.7340579,12.05788 5.8055483,10.727388 5.8152322,9.176011 Z"
       sodipodi:nodetypes="sssssccccssccccccscc" />
  </g>
</svg>
