<svg viewBox="0 0 12.7 12.7" xmlns="http://www.w3.org/2000/svg">
  <g>
    <path d="M 4.993564,10.905257 C 4.1346905,10.559543 3.6036459,10.25775 3.2526458,9.5126219 2.9837464,8.9417822 3.3089752,8.8954188 4.2069315,9.4867423 5.2368844,10.164978 7.283781,9.926805 8.2240654,8.8530591 8.7440559,8.2592615 8.6512743,8.1539784 8.6832963,6.2633606 8.6639464,3.0729263 9.1220417,3.2660521 6.1067283,3.3189701 3.9964812,3.3560019 3.9578262,3.2703672 3.5900852,3.5315176 2.7818611,4.1680257 2.2984806,3.2482378 2.7538453,2.6106878 3.2513219,2.0213182 3.2658048,2.0820823 5.6455826,2.0631288 8.6383644,2.0392836 8.4280151,2.0253265 8.6210273,1.8029858 8.8369938,1.5541992 9.1164671,1.5566414 9.3372326,1.5541992 c 0.5577059,0 0.7845924,0.3242311 0.7845924,1.0532095 0,0.4234115 -0.01678,0.7732844 -0.101291,0.969524 C 9.8089119,4.0683523 9.9409871,4.8722255 9.9075687,6.6848715 9.8889144,9.2666941 9.9074812,8.7644931 9.1262295,9.7006197 7.8611286,11.056317 6.3693096,11.459022 4.993564,10.905258 Z M 5.9134566,8.6268664 C 5.3003502,8.6214062 5.4734058,8.5139451 5.4734058,6.2624496 c 0,-2.2330117 0,-2.1693051 0.4400441,-2.1846706 0.4878585,-0.017039 0.4356512,0.2374212 0.4274953,2.2574096 -0.00898,2.2235971 0.122986,2.288294 -0.4274886,2.2916778 z M 7.4349788,8.5926918 C 6.9490036,8.606604 7.0765245,8.3440593 7.0431996,6.2701304 7.0113138,4.286028 6.9791661,4.0704175 7.4470188,4.0816804 7.9840293,4.0946052 7.8836117,4.4750415 7.8901617,6.2735584 7.898322,8.5160977 7.8791366,8.5799733 7.4349788,8.5926918 Z M 3.898229,6.2516003 C 3.8995753,4.2661537 3.883509,4.09054 4.3294679,4.0906178 c 0.4605181,8.16e-5 0.4039247,0.02395 0.3827064,2.1883633 0.00509,2.3216242 0.032963,2.3309693 -0.3607147,2.3395425 C 3.8007225,8.630521 3.9048806,8.5189774 3.898229,6.2516003 Z" />
  </g>
</svg>
