<svg viewBox="0 0 12.7 12.7" xmlns="http://www.w3.org/2000/svg"><path d="M7.325 11.186a17.86 17.86 0 0 1-.535-.903c-.42-.75-.684-1.347-.14-1.634.328-.175.579.289.846.775.323.585.63.945.878.758.348-.265.543-.458.217-.84-.264-.308-1.515-1.405-.897-1.998.283-.272.579-.483.922-.628.437-.185.148-.309-.119-.499L7.02 5.164 5.037 3.75 2.55 1.98c-.326-.23-.665-.473-.27-1.015.319-.437.515-.424 1.443.238 1.548 1.104 3.619 2.59 4.87 3.482 2.352 1.677 2.804 1.95.443 2.785-.564.2-.631.353-.456.51.203.19.831.755 1.092 1.153.328.5.252.801-.01 1.225-.233.376-.838 1.178-1.245 1.55-.3.273-.542.12-1.092-.723ZM4.889 8.254c-.053-.101-.09-.59-.09-1.107 0-.555.015-.848.346-.71.168.07.5.204.498.553-.004.693.149.78.638.28.335-.341.109-.48-2.319-2.21-.6-.43-.976-.667-1.245-.9-.34-.293-.296-.49-.172-.901.134-.441.575-.079 1.42.524L6.962 5.92c.664.474.254 1.578-.162 2.053-.47.462-.676.561-1.027.609-.404.055-.696.107-.883-.328Z"/></svg>