<svg viewBox="0 0 12.7 12.7" xmlns="http://www.w3.org/2000/svg">
  <g>
    <path d="m 4.9382413,0.69608899 c -0.3429565,0 -0.4652172,0.53557371 -0.457984,0.97611571 0.00472,0.279471 0,0.7645602 0,1.1763243 0,1.7317553 7.19e-5,2.2349495 -0.7312276,1.4083204 C 3.5374998,4.0177423 3.4369023,3.9293056 2.9486309,3.9990725 2.5067581,4.0622129 3.05391,5.0839032 3.1643054,5.3223288 3.5793143,6.2186436 4.984,9.3674786 5.318032,10.564226 5.5051081,11.234467 5.5533272,12.003912 6.35,12.003912 c 0.7966728,0 0.8448911,-0.769445 1.0319687,-1.439686 C 7.7159992,9.3674786 9.1206864,6.2186436 9.5356946,5.3223288 9.6460916,5.0839032 10.193241,4.062216 9.7513691,3.9990725 9.2630977,3.9293017 9.162501,4.0177493 8.950971,4.2568494 8.2196707,5.0834785 8.2197427,4.5802843 8.2197427,2.848529 c 0,-0.4117641 -0.00472,-0.8968533 0,-1.1763243 0.00727,-0.440542 -0.115026,-0.97611571 -0.4579832,-0.97611571 -0.3619233,0 -0.4699273,0.54953481 -0.4700132,0.81113831 -1.563e-4,0.4756341 0,1.4552824 0,2.3724093 0,0.3014529 -0.1487702,0.8167235 -0.9417463,0.8167235 -0.7929761,0 -0.9417448,-0.5152706 -0.9417448,-0.8167235 0,-0.9171269 1.555e-4,-1.8967752 0,-2.3724093 C 5.4081678,1.2456238 5.3001638,0.69608899 4.9382413,0.69608899 Z m 2.860467,4.51066991 c 0.1112226,0.00217 0.2212165,0.085748 0.3720563,0.2478946 0.3668153,0.3943129 0.141568,1.1029311 -0.8725735,1.8250632 -0.5752397,0.4096055 -0.9781513,0.5761906 -0.4223256,1.0371223 0.2105976,0.174643 0.186888,0.5394761 0.186888,0.780635 0,0.086124 0.018816,0.4083494 -0.1787257,0.6577597 C 6.6834355,10.008502 6.5406838,10.231266 6.5282955,10.595158 6.5234213,10.73845 6.4455067,10.796655 6.35,10.796655 c -0.095508,0 -0.1733904,-0.0582 -0.1782956,-0.201497 C 6.1593178,10.231266 6.016566,10.008502 5.8159721,9.7552337 5.6184335,9.5058234 5.6372464,9.1835979 5.6372464,9.097474 c 0,-0.2411589 -0.023698,-0.605992 0.1868889,-0.780635 C 6.3799609,7.8559073 5.9770486,7.6893222 5.4018097,7.2797167 4.3876682,6.5575846 4.16242,5.8489664 4.5292346,5.4546535 4.8510261,5.1087401 4.9861702,5.1210339 5.3463883,5.5165173 5.6280527,5.8257597 5.9157387,5.9478641 6.35,5.9478641 c 0.4342612,0 0.721948,-0.1221044 1.0036132,-0.4313468 C 7.5449778,5.3064172 7.6726551,5.2043094 7.7987083,5.2067558 Z" />
  </g>
</svg>
