<svg viewBox="0 0 12.7 12.7" xmlns="http://www.w3.org/2000/svg">
  <g>
    <path d="M 4.692147,1.6083394 C 4.663502,1.6085561 4.634699,1.6092156 4.605448,1.6100894 4.0863195,1.6270804 3.9872391,1.7874185 4.3164493,1.8468124 5.2368124,2.0128542 6.4684797,2.8100571 7.0338745,3.5025972 7.1027935,3.5870112 7.3046883,3.9104458 7.1907087,3.8540694 6.7698932,3.6459289 6.1877147,3.6126394 5.9110278,3.6208051 2.8972979,3.9471669 1.6263271,7.2921959 2.220498,9.6561878 2.3769252,10.585692 3.1403735,11.508917 2.9835966,10.891675 2.8062913,9.7790083 2.7654456,8.7636991 3.0772875,7.5998741 3.1622903,7.282637 3.2650701,7.284305 3.3607724,7.6034586 4.2395043,10.581112 7.8678388,10.724134 9.8881373,9.3568823 10.598415,8.8680354 11.357873,8.1540683 11.589077,7.7460574 11.803891,7.366969 11.785753,7.1267084 11.486036,7.4410221 10.830628,8.1283534 9.7985058,8.7226606 8.8227993,8.9360736 8.0144969,9.1128723 8.6017743,8.7437282 8.7675173,8.4674612 10.386097,6.5513406 8.689103,3.0874148 6.4643745,2.0490655 6.1756897,1.9065743 5.5799806,1.5997476 4.6921415,1.608345 c -1.04e-5,0 1.99e-5,-3.03e-5 9.5e-6,-3.03e-5 z M 6.2144811,4.9687811 C 7.174295,4.9689015 7.9523118,5.767085 7.9522904,6.7516396 7.9523118,7.7361943 7.174295,8.5343778 6.2144811,8.5344973 5.2545022,8.5346192 4.4762265,7.7363631 4.4762488,6.7516396 4.4762265,5.7669153 5.2545022,4.9686593 6.2144811,4.9687811 Z" />
  </g>
</svg>
