<svg viewBox="0 0 12.7 12.7" xmlns="http://www.w3.org/2000/svg"><path d="m4.692 1.608-.087.002c-.519.017-.618.177-.289.237.92.166 2.152.963 2.718 1.656.069.084.27.407.157.351-.421-.208-1.003-.241-1.28-.233-3.014.326-4.285 3.671-3.69 6.035.156.93.92 1.853.763 1.236-.178-1.113-.219-2.128.093-3.292.085-.317.188-.316.284.003.879 2.978 4.507 3.121 6.527 1.754.71-.489 1.47-1.203 1.701-1.61.215-.38.197-.62-.103-.306-.655.687-1.687 1.282-2.663 1.495-.809.177-.221-.192-.055-.469 1.618-1.916-.079-5.38-2.304-6.418-.288-.142-.884-.45-1.772-.44zm1.522 3.36c.96 0 1.738.8 1.738 1.784s-.778 1.782-1.738 1.782-1.738-.798-1.738-1.782c0-.985.779-1.783 1.738-1.783Z"/></svg>