<svg viewBox="0 0 12.7 12.7" xmlns="http://www.w3.org/2000/svg"><path d="M5.858.661c-.201 0-.404.483-1.822 4.444-.563 1.574-1.05 2.986-1.123 3.064-.35.378-.471-1.365-.224-2.033.23-.62-.336-.416-.674.248-.48.94-.874 2.114.052 3.24.23.28.33.417.285.556-.086.265-.316 1.015-.316 1.3-.101.452.072.833.512.295.242-.296.576-1.184.603-1.263.07-.204.347-.06 1.053.009 2.093.153 4.73-.753 6.663-2.565.682-.64.124-.671-.128-.461-1.111.928-3.967 1.722-5.253 1.667-.623-.027-1.428-.072-1.61-.232-.05-.045.068-.511.249-1.072.11-.34.161-.499.258-.857.033-.123.133-.064.208.054.479.756 1.293 1.234 2.188 1.234a2.559 2.559 0 0 0 1.69-4.48c-.162-.228-.119-.41-.114-.682.008-.505-.214-.628-.617-.312-.218.173-.37.412-.582.38-.124-.018-.261-.02-.377-.024-.377 0-.75.084-1.092.245-.267.054-.178-.159.002-.775.375-1.286.564-1.864.233-1.968a.212.212 0 0 0-.064-.012Zm.921 3.536a1.533 1.533 0 1 1 0 3.067 1.533 1.533 0 0 1 0-3.067Z"/></svg>