<svg viewBox="0 0 12.7 12.7" xmlns="http://www.w3.org/2000/svg">
  <g>
    <path d="M 5.5918705,1.5703432 C 2.8978194,1.9667923 1.0717576,3.9383829 1.6155611,6.8972379 1.8604727,8.2298089 2.8526427,9.6025873 3.2318767,9.2311191 3.4247774,9.0421702 3.4144677,8.8818882 3.0365918,8.3381663 2.7636942,7.9454958 2.4893352,7.5296503 2.4602402,6.9961401 2.4140733,6.1495891 2.5657096,5.7101974 2.902767,5.9561172 3.2573532,6.2724156 3.8462417,6.8400451 4.5733709,6.7135931 5.1740764,6.6091268 5.2690873,7.0410537 5.2096646,7.6639642 5.1974766,7.7917299 5.0702339,8.245302 5.0647589,8.4086997 c -0.012759,0.3820114 0.267021,0.3249242 1.2869387,0.3249242 1.0199202,0 1.349966,0.052064 1.2869419,-0.3249242 C 7.3886298,6.913227 7.3293476,6.5973351 7.9691439,6.4615889 8.0938386,6.4608056 8.6663116,6.5216381 9.0206402,6.8931376 9.1954129,7.0763834 9.5864596,7.5167421 9.4128303,8.2277199 9.0548264,9.6936757 7.0392168,10.738671 4.841561,10.254414 4.062464,10.082738 3.8858306,10.50077 4.9663037,10.899785 8.1918658,12.038162 11.382963,9.3741464 11.146224,6.0650271 11.078897,4.9637199 10.61401,4.2238977 10.214237,3.7349455 9.8467575,3.2854905 9.615804,3.4202341 9.8544686,4.2132445 10.266231,5.8294704 10.163615,6.1482996 9.9817933,6.3250762 9.9370814,6.3685474 9.5594217,5.9949282 9.2011764,5.8247493 8.862092,5.6636731 8.4187221,5.5327384 7.8927327,5.6126444 7.5465436,5.6652389 7.3373178,5.8344557 7.2287421,5.6101173 7.0835539,5.310122 7.0775206,5.3396392 6.8389892,4.5181518 6.7771525,4.3021761 6.579745,3.5236932 6.351698,3.5236932 c -0.2535868,0 -0.4114071,0.6983215 -0.4947969,0.9944586 C 5.4884499,5.826628 5.2558457,5.6834488 4.9913135,5.7299051 4.1780031,5.8727359 3.6059981,5.4454005 3.275021,4.8986639 3.0560611,4.5369674 3.3190065,3.6688548 3.9539248,3.4549216 4.15102,3.3885112 4.508558,3.2509033 4.701582,3.1049964 4.9549075,2.9135076 5.1023635,2.7165066 5.5079772,2.5189954 6.0390423,2.2603965 6.7185362,2.2179931 7.9219572,2.5141393 8.939717,2.7645968 8.9202623,2.3489405 8.3182674,2.0594919 7.6216257,1.7245356 6.7215063,1.404109 5.5918705,1.5703432 Z m 0.7598322,3.8701842 c 0.038355,-3.2e-6 0.064668,0.030123 0.097776,0.3641601 0.072191,0.7283622 0.11541,1.2398963 0.1446218,1.5355501 C 6.614253,7.5441428 6.7201218,7.6069288 6.3517027,7.6037653 5.9832861,7.6069766 6.0891549,7.544153 6.1093052,7.3402376 6.1385279,7.0445838 6.1669862,6.5346958 6.2591712,5.8085937 6.3000929,5.4862717 6.3133452,5.4405274 6.3517027,5.4405274 Z" />
  </g>
</svg>
