<svg viewBox="0 0 12.7 12.7" xmlns="http://www.w3.org/2000/svg"><path d="M6.265 9.427c-.05-.583-.355-.44.59-1.417.79-.815.721-.88 1.361-.94 1.186-.11 1.077.147 1.604.422.805.42.708.676.653 1.582-.07 1.114-.163 1.195-1.134 1.332-.842.118-1.45.145-2.11.04-.884-.142-.87.072-.964-1.02Zm-3.147-.885c-.32-.3-.891-.838-.91-1.155-.031-.486-.011-.491 0-.78.023-.624.603.176.79.352.444.42.524.569.532.735.013.25.1.487.453.145.21-.203.234-.222-.535-1.049C2.243 5.496 2.28 5.786 2.144 4.7c-.122-.965-.149-1.276.157-1.24.462.053.677.047.669-.329-.008-.34.094-.42.398-.382.402.05.602.106.687-.394.056-.34.284-.355.567-.29.509.116.543-.048.632-.345.096-.312.581.002 1.275.243.749.26.856.652 1.418 2.103.296.758.54 1.426.908 2.29.187.44-.313.29-.794.324-.736.05-.856.24-1.954 1.467-.517.574-.391.639-1.625.625-.924-.01-1.108.01-1.363-.23Z"/></svg>