<svg viewBox="0 0 12.7 12.7" xmlns="http://www.w3.org/2000/svg"><path d="M4.144 11.056c.039-.443.068-1.119.13-2.293.033-.66-.258-.302-.752.264-.723.826-.92 1.355-1.036.478a123.854 123.854 0 0 1-.41-5.42c-.107-1.963.078-1.061.898 1.85.444 1.58.496 1.964.667 1.746a6.828 6.828 0 0 1 .414-.473c.579-.598.644-.754.823-.312.945 2.313 1.51 3.222 2.129 4.259.221.37-.075.422-1.85.405-.636-.006-1.06.023-1.014-.504Zm4.884-5.252c-2.395-1.231-2.295-.93-1.716-1.607a6.53 6.53 0 0 1 .574-.561c.164-.135-.932-.405-2.087-.762-2.194-.68-3.318-1.02-1.967-.919 1.996.15 3.393.232 5.892.455.759.07.292.364-.117.743-.1.093-.711.69-.85.828-.277.277.063.211.798.213.632 0 1.33-.073 1.802-.036.268.02.279.366.266 1.338-.01.71.016 1.578-.239 1.446-.289-.151-1.022-.452-2.356-1.138Z"/></svg>