<svg viewBox="0 0 12.7 12.7" xmlns="http://www.w3.org/2000/svg">
  <g>
    <path d="M 9.068337,10.399792 C 9.045608,10.012569 9.003516,9.8585827 8.696097,9.57695 8.3505355,9.2603625 8.1396123,9.4710675 7.7749872,9.8710854 7.4051809,10.276758 7.3951862,10.396814 6.6119059,10.3784 6.165088,10.367885 5.7469992,10.329536 6.8465762,9.2387146 7.3689442,8.7004117 7.5050367,8.4076998 7.3820996,8.2375088 7.2609227,8.0922786 7.1949695,8.1691143 6.9537329,8.333972 6.3585777,8.7406517 5.9415298,8.5306002 6.0046667,7.995497 6.0676505,7.4612768 4.2275274,5.0972836 2.3607185,4.3102108 1.6335957,4.0036522 1.7034825,3.5920415 1.7122528,2.911081 1.7317678,1.3949 1.397058,1.7730572 2.882015,1.7367144 3.6664585,1.7175407 4.0304025,1.6082645 4.3558446,2.3548505 5.1498236,4.1763002 7.4548869,6.0777514 8.0112952,5.9965743 8.5788,5.9137807 8.687312,6.2639185 8.3497243,6.8949023 8.2105476,7.1550365 8.1506556,7.2529397 8.2678147,7.3375807 8.463845,7.4792587 8.716309,7.3652377 9.229883,6.8552905 10.438859,5.6547775 10.357455,6.0964222 10.350016,6.5602892 10.337006,7.3728366 10.213678,7.351056 9.821671,7.7669253 9.491989,8.1166747 9.34356,8.3205755 9.568419,8.6782066 c 0.224163,0.3565276 0.485045,0.4146955 0.851354,0.3872328 1.029055,-0.077139 0.532645,0.5092576 -0.169919,1.2007866 -0.662746,0.652314 -1.158466,1.150156 -1.181486,0.133566 z" />
  </g>
</svg>
