<svg viewBox="0 0 12.7 12.7" xmlns="http://www.w3.org/2000/svg"><path d="M9.068 10.4c-.022-.387-.064-.541-.372-.823-.345-.317-.556-.106-.921.294-.37.406-.38.526-1.163.507-.447-.01-.865-.048.235-1.14.522-.538.658-.83.535-1-.121-.146-.187-.069-.428.096-.595.407-1.012.197-.95-.339.064-.534-1.776-2.898-3.643-3.685-.727-.306-.658-.718-.649-1.399.02-1.516-.315-1.138 1.17-1.174.784-.02 1.148-.129 1.474.618.794 1.821 3.099 3.723 3.655 3.642.568-.083.676.267.339.898-.14.26-.2.358-.082.443.196.141.448.027.962-.483 1.209-1.2 1.127-.759 1.12-.295-.013.813-.136.791-.528 1.207-.33.35-.478.554-.254.911.225.357.485.415.852.387 1.029-.077.532.51-.17 1.201-.663.653-1.159 1.15-1.182.134z"/></svg>