<svg viewBox="0 0 12.7 12.7" xmlns="http://www.w3.org/2000/svg"><path d="M9.226 10.47c-.021-.37-.062-.517-.356-.787-.33-.303-.532-.101-.88.281-.355.389-.364.503-1.113.485-.428-.01-.827-.046.225-1.09.499-.514.629-.794.511-.956-.115-.14-.179-.066-.409.092-.569.389-.968.188-.908-.325.06-.51-1.699-2.77-3.484-3.523-.695-.293-.63-.687-.62-1.338.018-1.45-.302-1.089 1.118-1.123.75-.02 1.098-.123 1.41.591.759 1.741 2.963 3.56 3.495 3.483.543-.08.646.255.324.858-.134.25-.191.343-.078.424.187.135.428.026.92-.462 1.156-1.147 1.077-.726 1.07-.282-.012.778-.13.757-.504 1.154-.316.335-.458.53-.243.872.215.34.463.396.814.37.984-.074.51.487-.162 1.148-.634.624-1.108 1.1-1.13.128z"/></svg>