<svg viewBox="0 0 12.7 12.7" xmlns="http://www.w3.org/2000/svg"><path d="M6.372 1.306c-.367 0-.646.121-1.027.303-.828.394-.868.484-.691 1.418.326 1.735.332 1.983-.4 2.067-.371.044-.928-.026-1.64-.492-.668-.439-1.295-.31-1.335 1.784-.003 1.364.311 2.528 1.388 1.893.361-.214.976-.647 1.566-.629.47.013.76.319.456 2.127-.188 1.116-.113 1.075.676 1.385.446.176.81.273 1.006.273.195 0 .56-.097 1.005-.273.79-.31.864-.269.676-1.385-.304-1.808-.013-2.114.456-2.127.59-.018 1.204.415 1.566.629 1.077.635 1.392-.529 1.388-1.892-.04-2.095-.667-2.224-1.337-1.783-.711.464-1.267.534-1.639.49-.73-.084-.725-.332-.397-2.067.175-.934.136-1.024-.69-1.418-.383-.182-.661-.303-1.028-.303Zm0 1.722c.238 0 .475.108.567.158.212.113.216.143.085 1.16-.144 1.112-.275 1.613.703 1.47C9.88 5.5 9.84 5.4 9.827 6.32c-.012 1.024.039.988-2.092.524-.454-.1-.854-.086-.772.732.2 1.966.203 1.998-.015 2.144-.22.149-.418.202-.576.202-.16 0-.356-.053-.577-.2-.218-.148-.214-.18-.015-2.145.082-.819-.317-.832-.771-.733-2.131.464-2.08.5-2.093-.524-.01-.92-.052-.82 2.1-.504.98.144.848-.358.703-1.47-.132-1.017-.127-1.047.086-1.16a1.31 1.31 0 0 1 .567-.159Z"/></svg>