<svg viewBox="0 0 12.7 12.7" xmlns="http://www.w3.org/2000/svg"><path d="M5.047 2.12c-.49.263-.478.775-.31 1.42.445 1.706.366 1.863-1.362 1.234-1.326-.483-1.726-.441-1.72 1.631.007 2.44.465 1.846 1.894 1.41 1.246-.379 1.64-.197 1.288 1.137-.399 1.538-.059 1.54.405 1.776.756.39 1.587.287 2.216-.028.463-.236.803-.238.405-1.776-.353-1.334.041-1.516 1.287-1.136 1.43.436 1.888 1.028 1.895-1.411.005-2.072-.394-2.115-1.72-1.632-1.728.63-1.871.506-1.362-1.232.187-.64.18-1.158-.31-1.42-.795-.517-1.942-.486-2.606.027Z"/></svg>