<svg viewBox="0 0 12.7 12.7" xmlns="http://www.w3.org/2000/svg"><path d="M6.37 1.402c-.46 0-2.277.596-3.904 1.106-.344.108-.157.218-.012.474.268.477.224 1.587-.786 1.584-.275 0-.292.34-.036 1.271.5 1.816 1.515 3.483 2.995 4.836.806.736 1.628 1.16 1.744 1.16.115 0 .937-.424 1.743-1.16 1.48-1.353 2.496-3.02 2.995-4.836.256-.932.24-1.27-.036-1.27-1.01.002-1.054-1.108-.785-1.584.146-.258.33-.367-.013-.475-1.628-.51-3.443-1.105-3.904-1.106ZM6.37 3c.12 0 .422.075 2.183.697.338.12.327.137.214.367-.23.475-.067.89.424 1.036.28.083.202.022.16.463-.174 1.745-2.641 4.389-2.98 4.389-.34 0-2.807-2.645-2.98-4.39-.043-.441-.121-.382.16-.464.489-.145.653-.56.423-1.035-.113-.23-.124-.247.214-.367C5.951 3.074 6.25 3 6.371 3Z"/></svg>