<?xml version="1.0" encoding="UTF-8" standalone="no"?>
<!-- Created with Inkscape (http://www.inkscape.org/) -->

<svg
   width="150mm"
   height="120mm"
   viewBox="0 0 150 120"
   version="1.1"
   id="svg5"
   inkscape:version="1.1 (c68e22c387, 2021-05-23)"
   sodipodi:docname="all.svg"
   xmlns:inkscape="http://www.inkscape.org/namespaces/inkscape"
   xmlns:sodipodi="http://sodipodi.sourceforge.net/DTD/sodipodi-0.dtd"
   xmlns="http://www.w3.org/2000/svg"
   xmlns:svg="http://www.w3.org/2000/svg">
  <sodipodi:namedview
     id="namedview7"
     pagecolor="#ffffff"
     bordercolor="#999999"
     borderopacity="1"
     inkscape:pageshadow="0"
     inkscape:pageopacity="0"
     inkscape:pagecheckerboard="0"
     inkscape:document-units="px"
     showgrid="true"
     inkscape:zoom="4"
     inkscape:cx="303.375"
     inkscape:cy="76.625"
     inkscape:window-width="2560"
     inkscape:window-height="1361"
     inkscape:window-x="-9"
     inkscape:window-y="-9"
     inkscape:window-maximized="1"
     inkscape:current-layer="layer1"
     inkscape:object-nodes="false"
     showguides="true"
     inkscape:snap-object-midpoints="true"
     height="150mm"
     inkscape:snap-grids="true"
     inkscape:snap-others="true"
     inkscape:guide-bbox="true"
     inkscape:object-paths="false"
     inkscape:snap-smooth-nodes="false"
     inkscape:snap-nodes="true"
     inkscape:snap-center="true"
     inkscape:snap-bbox="false"
     inkscape:snap-to-guides="false">
    <inkscape:grid
       type="xygrid"
       id="grid1056"
       spacingx="2.1166667"
       spacingy="2.1166667"
       empspacing="8"
       units="px" />
  </sodipodi:namedview>
  <defs
     id="defs2">
    <filter
       style="color-interpolation-filters:sRGB;"
       inkscape:label="Greyscale"
       id="filter1719"
       x="0"
       y="0"
       width="1"
       height="1">
      <feColorMatrix
         values="0.31 1.42 -0.73 -0.2 0 0.31 1.42 -0.73 -0.2 0 0.31 1.42 -0.73 -0.2 0 0 0 0 1 0 "
         id="feColorMatrix1717" />
    </filter>
    <filter
       style="color-interpolation-filters:sRGB;"
       inkscape:label="Greyscale"
       id="filter20201"
       x="0"
       y="0"
       width="1"
       height="1">
      <feColorMatrix
         values="0.41 1.42 -0.23 2.77556e-17 0 0.41 1.42 -0.23 2.77556e-17 0 0.41 1.42 -0.23 2.77556e-17 0 0 0 0 1 0 "
         id="feColorMatrix20199" />
    </filter>
    <filter
       style="color-interpolation-filters:sRGB;"
       inkscape:label="Greyscale"
       id="filter33325"
       x="0"
       y="0"
       width="1"
       height="1">
      <feColorMatrix
         values="0.41 1.42 -0.23 2.77556e-17 0 0.41 1.42 -0.23 2.77556e-17 0 0.41 1.42 -0.23 2.77556e-17 0 0 0 0 1 0 "
         id="feColorMatrix33323" />
    </filter>
    <filter
       style="color-interpolation-filters:sRGB;"
       inkscape:label="Greyscale"
       id="filter48723"
       x="0"
       y="0"
       width="1"
       height="1">
      <feColorMatrix
         values="0.41 1.42 -0.23 -0.2 0 0.41 1.42 -0.23 -0.2 0 0.41 1.42 -0.23 -0.2 0 0 0 0 1 0 "
         id="feColorMatrix48721" />
    </filter>
    <filter
       style="color-interpolation-filters:sRGB;"
       inkscape:label="Greyscale"
       id="filter54706"
       x="0"
       y="0"
       width="1"
       height="1">
      <feColorMatrix
         values="0.41 1.42 -0.23 -0.1 0 0.41 1.42 -0.23 -0.1 0 0.41 1.42 -0.23 -0.1 0 0 0 0 1 0 "
         id="feColorMatrix54704" />
    </filter>
    <filter
       style="color-interpolation-filters:sRGB;"
       inkscape:label="Greyscale"
       id="filter58511"
       x="0"
       y="0"
       width="1"
       height="1">
      <feColorMatrix
         values="0.41 1.92 -0.23 -0.2 0 0.41 1.92 -0.23 -0.2 0 0.41 1.92 -0.23 -0.2 0 0 0 0 1 0 "
         id="feColorMatrix58509" />
    </filter>
    <filter
       style="color-interpolation-filters:sRGB;"
       inkscape:label="Greyscale"
       id="filter69412"
       x="0"
       y="0"
       width="1"
       height="1">
      <feColorMatrix
         values="1.21 1.92 -0.23 -0.2 0 1.21 1.92 -0.23 -0.2 0 1.21 1.92 -0.23 -0.2 0 0 0 0 1 0 "
         id="feColorMatrix69410" />
    </filter>
    <filter
       style="color-interpolation-filters:sRGB;"
       inkscape:label="Greyscale"
       id="filter79544"
       x="0"
       y="0"
       width="1"
       height="1">
      <feColorMatrix
         values="1.21 1.92 -0.23 -0.2 0 1.21 1.92 -0.23 -0.2 0 1.21 1.92 -0.23 -0.2 0 0 0 0 1 0 "
         id="feColorMatrix79542" />
    </filter>
    <filter
       style="color-interpolation-filters:sRGB;"
       inkscape:label="Greyscale"
       id="filter94989"
       x="0"
       y="0"
       width="1"
       height="1">
      <feColorMatrix
         values="1.21 1.92 -0.23 -0.2 0 1.21 1.92 -0.23 -0.2 0 1.21 1.92 -0.23 -0.2 0 0 0 0 1 0 "
         id="feColorMatrix94987" />
    </filter>
  </defs>
  <g
     inkscape:label="Layer 1"
     inkscape:groupmode="layer"
     id="layer1">
    <path
       id="path4205"
       style="fill:#000000;stroke-width:0.31051"
       d="m 41.254346,2.3016454 c -0.4799,0 -1.253782,0.042868 -1.26088,0.7690336 -0.0071,0.7261661 0.865602,0.7617161 1.491477,0.7617161 h 2.266433 c 0.500153,0 0.820085,-0.031744 0.820085,0.7426466 v 3.580587 c 0,1.12435 -0.134541,2.8626753 0.698105,2.8483083 0.832646,-0.01437 0.832646,-1.0041956 0.832646,-1.9348122 0,-2.0343709 0.182862,-2.9888814 2.008936,-3.7887309 1.761933,-0.7029901 1.591996,-0.9997813 1.130422,-1.0829008 -0.554919,-0.099931 -1.629429,-0.061253 -2.565968,0.4656489 -0.57339,0.3515595 -0.57339,0.1189928 -0.57339,-1.2838004 0,-1.0776962 -1.152494,-1.0776962 -1.530751,-1.0776962 z m -2.593702,2.2733965 c -1.235004,-2e-7 -1.457276,-2e-7 -1.457276,1.1253479 v 1.5380049 c 0,2.0671576 0.02735,2.3582461 0.688919,2.3654851 0.51228,0.00561 0.768357,-0.2705207 0.768357,-1.6976791 0,-1.8307205 0,-1.8307205 0.848208,-1.8414374 0.703432,-0.00889 2.110437,0.010717 2.110437,0.010717 0.535273,0 0.588857,0.3229323 0.588857,1.117407 v 4.0116347 c 0,0.58418 -0.103463,1.141114 -0.741966,1.16836 -0.427579,0.01825 -1.040252,0 -1.455871,0 -1.349665,0 -1.329811,0.210486 -1.349665,-1.292354 -0.01521,-1.1512793 -0.728697,-0.596034 -1.919207,0.535021 -1.562177,1.468918 -2.527185,4.56255 -0.385906,2.087806 1.010932,-1.083003 0.954002,-0.903039 0.970667,-0.509409 0.02785,0.657866 0.627783,0.657866 1.168334,0.657866 0.4444,0 1.306255,-0.01139 1.985555,-0.01649 0.94247,-0.0071 1.619961,0.01649 2.102885,0.01649 1.168404,0 1.168404,-0.620146 1.168404,-2.568641 V 6.0754802 c 0,-1.5004385 -0.325099,-1.5004563 -1.635177,-1.5004563 -1.652551,0 -2.875183,-0.00178 -3.455555,2e-7 z"
       sodipodi:nodetypes="szsssszscscssscsssssszzsssccssssssscc" />
    <path
       id="path761"
       style="fill:#000000;stroke-width:0.272801"
       d="m 15.338887,52.573497 c -0.380252,-0.381955 -0.773103,-0.320053 -3.116195,1.280389 -1.114952,0.682345 -3.529797,3.009064 -2.302069,0.04677 0.229097,-0.502872 0.348098,-1.230092 -0.6347117,-1.019123 -0.9899537,0.212503 -3.5911606,2.418221 -5.0660104,4.779531 -0.084337,0.06471 -0.1626919,0.127976 -0.2386115,0.191109 a 4.3335643,4.3335643 0 0 0 -0.798782,0.809013 c -0.034023,0.04407 -0.066219,0.08773 -0.096832,0.13118 a 4.3335643,4.3335643 0 0 0 -0.051522,0.07491 c -0.034726,0.05208 -0.067265,0.104003 -0.097564,0.155298 a 4.3335643,4.3335643 0 0 0 -0.6350782,2.253103 4.3335643,4.3335643 0 0 0 4.3337336,4.333733 4.3335643,4.3335643 0 0 0 3.6215532,-1.953834 c 1.885251,-1.160508 4.826475,-4.097218 4.802917,-5.244329 -0.09489,-0.746509 -0.602352,-0.624694 -1.01364,-0.449451 -2.690394,1.137563 -1.117129,-0.603811 0.04677,-2.294029 1.774932,-2.475483 1.623316,-2.715307 1.246039,-3.094272 z m -1.181729,1.218271 c -1.952938,2.748215 -3.665891,4.073919 -2.569545,5.424839 0.250221,0.308317 0.883063,0.208949 1.22046,0.124971 0.640693,-0.159467 0.699771,-0.03576 0.02302,0.66102 -1.502373,1.546821 -1.815866,1.942165 -1.879657,1.660413 a 4.3335643,4.3335643 0 0 0 0.01754,-0.387332 4.3335643,4.3335643 0 0 0 -0.09026,-0.866382 4.3335643,4.3335643 0 0 0 -2.9890327,-3.280629 C 7.6933551,57.062405 7.4956286,57.015708 7.2984597,56.993467 a 4.3335643,4.3335643 0 0 0 -0.6632154,-0.05152 4.3335643,4.3335643 0 0 0 -0.3460404,0.01498 c -0.2905571,-0.06173 0.059743,-0.370976 1.5588277,-1.859192 0.5801385,-0.575939 0.9174502,-0.832877 0.7472594,-0.05591 -0.2205296,0.851758 -0.086749,1.192627 0.1103518,1.352741 1.3342892,1.083901 2.6868302,-0.743647 5.4515152,-2.602798 z m -5.6904912,5.4749 A 2.718698,2.718698 0 0 1 9.3538757,61.27568 2.718698,2.718698 0 0 1 6.6352435,63.994312 2.718698,2.718698 0 0 1 3.9166113,61.27568 2.718698,2.718698 0 0 1 6.6352435,58.557047 2.718698,2.718698 0 0 1 8.4666668,59.266668 Z" />
    <path
       style="fill:#000000;stroke-width:0.266636"
       d="m 23.794618,48.423517 c -1.148277,-0.462204 -1.858261,-0.865689 -2.327533,-1.861893 -0.359507,-0.763188 0.07531,-0.825174 1.275839,-0.0346 1.377003,0.906772 4.113616,0.588345 5.370736,-0.847207 0.695205,-0.793882 0.57116,-0.934641 0.613972,-3.462316 -0.02587,-4.265474 0.586584,-4.007273 -3.444761,-3.936524 -2.82131,0.04951 -2.87299,-0.06498 -3.364644,0.284167 -1.080561,0.850984 -1.72682,-0.378733 -1.118017,-1.23111 0.665105,-0.787962 0.684468,-0.706723 3.866129,-0.732063 4.001221,-0.03188 3.719993,-0.05054 3.978042,-0.3478 0.288738,-0.332617 0.662382,-0.329352 0.957536,-0.332617 0.745629,0 1.048966,0.433483 1.048966,1.408096 0,0.566083 -0.02244,1.033848 -0.135421,1.296212 -0.28293,0.657007 -0.106351,1.731751 -0.15103,4.155181 -0.02494,3.451786 -1.17e-4,2.780365 -1.044617,4.031926 -1.691386,1.812509 -3.685884,2.350909 -5.525197,1.61055 z m 1.229857,-3.04611 c -0.819697,-0.0073 -0.588329,-0.150971 -0.588329,-3.161124 0,-2.985441 0,-2.900268 0.58832,-2.920811 0.652246,-0.02278 0.582447,0.317422 0.571543,3.01806 -0.012,2.972854 0.164427,3.059351 -0.571534,3.063875 z m 2.03421,-0.04569 c -0.649728,0.0186 -0.479238,-0.332411 -0.523792,-3.105165 -0.04263,-2.65266 -0.08561,-2.940922 0.539889,-2.925864 0.71796,0.01728 0.583706,0.525907 0.592463,2.930447 0.01091,2.998179 -0.01474,3.083578 -0.60856,3.100582 z m -4.728483,-3.129939 c 0.0018,-2.654457 -0.01968,-2.889245 0.576548,-2.889141 0.615693,1.09e-4 0.54003,0.03202 0.511662,2.925748 0.0068,3.103912 0.04407,3.116406 -0.48226,3.127868 -0.736312,0.01604 -0.597057,-0.133089 -0.60595,-3.164475 z"
       id="path1205"
       sodipodi:nodetypes="sssscsccssccsccsccsscssssscscsc" />
    <path
       id="path26667"
       style="fill:#000000;stroke-width:0.27447"
       d="m 8.4666667,35.571989 c -0.1834608,0 -0.480101,0.392909 -0.7973671,0.930177 -0.3962988,0.657648 -1.5329241,1.61003 -2.5486818,1.899108 -1.6183488,0.500332 -2.8307083,1.780026 -1.8283121,3.984254 0.9918874,2.056395 3.1377303,3.414909 4.1661538,5.478217 0.363734,0.712962 0.6954795,1.230934 1.0082072,1.230934 0.3127277,0 0.6444734,-0.517972 1.0082071,-1.230934 C 10.503297,45.800437 12.649141,44.441923 13.641028,42.385528 14.643424,40.1813 13.431065,38.901606 11.812716,38.401274 10.796958,38.112196 9.6603331,37.159814 9.264034,36.502166 8.9467682,35.964898 8.6501275,35.571989 8.4666667,35.571989 Z m 0,2.338358 c 0.1362286,0 0.2863225,0.136309 0.6743776,0.499714 0.4850038,0.454189 0.5554049,0.477319 0.1493449,0.814419 -0.58782,0.482788 -0.7917162,1.853412 0.1674315,2.822567 0.7805113,0.788654 1.0412563,0.517311 0.9523973,-0.513146 -0.03507,-0.869972 0.41233,-1.629116 1.135847,-1.687237 0.760542,-0.01802 1.454295,1.071284 0.613917,2.427242 -0.8018,1.187419 -2.4494485,2.412928 -3.0525275,3.175 -0.3031991,0.358812 -0.5424882,0.664559 -0.642338,0.664559 -0.098816,0 -0.3360385,-0.305747 -0.6392376,-0.664559 -0.6030787,-0.762072 -2.2507281,-1.987581 -3.0525267,-3.175 -0.8403786,-1.355958 -0.1466262,-2.445261 0.6139162,-2.427242 0.7235179,0.05812 1.1709108,0.817268 1.1358477,1.687237 -0.088861,1.030459 0.171885,1.3018 0.9523968,0.513146 0.959148,-0.969155 0.7552507,-2.339779 0.1674315,-2.822567 -0.4060603,-0.3371 -0.3356597,-0.360228 0.1493449,-0.814419 0.3880543,-0.363403 0.5381493,-0.499714 0.6743774,-0.499714 z"
       sodipodi:nodetypes="sccccsccccssscsccccsccccscss" />
    <path
       id="path445-5"
       style="fill:#000000;stroke-width:0.304531"
       d="m 25.4,17.692334 c -0.183861,0 -0.200699,0.846225 -0.392187,2.134315 -0.170108,1.14426 -0.308452,1.312327 -0.738441,1.096053 -0.524846,-0.263984 -1.10841,-0.547677 -1.948594,-0.845626 -1.133558,-0.401988 -1.370364,-0.306048 -0.624339,0.45887 0.700476,0.718219 1.204187,1.030212 1.630494,1.356853 0.285608,0.218835 0.162735,0.394271 -0.124966,0.574947 -0.475118,0.298369 -1.697943,0.964543 -3.029827,1.96588 -1.581527,1.189025 0.182895,0.482596 2.483036,-0.473688 1.586603,-0.659631 2.191056,-1.236133 1.814734,0.186215 -0.157439,0.595064 -0.583756,1.206616 -2.141723,1.732741 -0.267179,0.09024 -0.380138,0.18604 0.05038,0.535432 0.403094,0.327133 1.346052,1.473035 1.673963,2.251378 0.215084,0.524487 0.409489,0.947513 0.793268,2.612448 0.310955,1.348968 0.365069,1.892285 0.5542,1.892285 0.189129,0 0.243246,-0.543317 0.554201,-1.892285 0.383779,-1.664935 0.578181,-2.087961 0.793268,-2.612448 0.327909,-0.778343 1.270867,-1.924245 1.673963,-2.251378 0.430519,-0.349392 0.317561,-0.445201 0.05038,-0.535432 -1.557967,-0.526125 -1.984283,-1.137677 -2.141722,-1.732741 -0.376322,-1.422348 0.228132,-0.845846 1.814735,-0.186215 2.300139,0.956284 4.064562,1.662713 2.483034,0.473688 -1.331884,-1.001337 -2.554708,-1.667511 -3.029825,-1.96588 -0.287702,-0.180676 -0.410575,-0.356112 -0.124967,-0.574947 0.426306,-0.326641 0.930017,-0.638635 1.630495,-1.356853 0.746025,-0.764918 0.509219,-0.860858 -0.62434,-0.45887 -0.840183,0.297949 -1.423748,0.581642 -1.948594,0.845626 -0.429989,0.216274 -0.568332,0.04821 -0.738441,-1.096053 -0.19149,-1.28809 -0.208327,-2.134315 -0.392189,-2.134315 z m 0,7.46442 c 0.109082,0 0.355751,0.267561 0.57544,0.473196 0.795824,0.744916 0.778665,0.565388 0.128918,1.478363 -0.297749,0.41837 -0.444749,0.727572 -0.704358,0.727572 -0.25961,0 -0.40661,-0.309202 -0.704358,-0.727572 -0.649748,-0.912975 -0.666907,-0.733447 0.128918,-1.478363 0.219689,-0.205635 0.466358,-0.473196 0.57544,-0.473196 z" />
    <path
       id="path17559"
       style="fill:#000000;stroke-width:0.273137"
       d="m 64.979081,19.873027 c -0.273991,-0.273989 -0.77947,0.184471 -2.046424,1.058103 -0.756355,0.521551 -0.908922,0.509037 -1.331381,0.30889 -0.439225,-0.208091 -1.240775,-0.585814 -2.077177,-0.653669 -0.58599,-0.04754 -0.589593,-0.312172 -0.691101,-0.61015 -0.275859,-0.80981 -0.980173,-0.680356 -1.100316,0.0084 -0.05998,0.344175 -0.06246,0.767003 -0.544202,0.911268 -2.081129,0.623261 -3.43516,2.784715 -3.490545,4.627849 -0.02416,0.802994 0.185985,1.139874 0.668061,1.12372 0.487701,-0.01634 0.627396,-0.294806 0.700114,-0.894012 0.406488,-2.597896 2.155807,-4.160156 5.016458,-3.479012 0.331655,0.07897 0.968746,0.30728 0.575832,0.680418 -0.776269,0.737189 -1.46547,1.364373 -2.224841,2.123749 -0.836741,0.83674 -2.891486,2.764161 -3.993629,4.283333 -0.541754,0.731496 -1.205252,1.608807 -0.881937,1.932122 0.27398,0.273987 0.616949,-0.09871 1.897748,-0.951913 0.381496,-0.254134 0.936929,0.10797 1.311778,0.267322 1.5268,0.649066 2.995389,0.654525 4.494843,-0.164594 0.342763,-0.187241 0.552946,0.120172 0.969139,0.336208 0.63643,0.330359 0.898041,-0.08738 0.781863,-0.672872 -0.06545,-0.330042 -0.163881,-0.774856 0.02354,-1.04075 0.483532,-0.685832 0.736091,-1.229303 0.88615,-1.785865 0.227988,-0.845653 0.07289,-1.400972 -0.489127,-1.46852 -0.535789,-0.0644 -0.815384,0.716245 -0.931169,1.114204 -0.588417,2.022554 -2.959269,3.152659 -4.660492,2.461602 -0.78749,-0.319891 -0.903007,-0.299645 -0.07071,-1.068896 0.777198,-0.718328 1.579428,-1.479095 2.331902,-2.231564 0.836743,-0.836741 2.788246,-2.764163 3.89039,-4.283333 0.507893,-0.685779 1.226493,-1.499511 1.034965,-1.864977 -0.01279,-0.02436 -0.02962,-0.04694 -0.04976,-0.06715 z"
       sodipodi:nodetypes="csssscssscssscssssssssssssscccc" />
    <path
       id="path10066"
       style="fill:#000000;stroke-width:0.283716"
       d="m 42.333312,18.568567 c -0.293756,0 -0.384111,0.264971 -0.527394,0.542778 -0.046,0.08917 -0.328209,0.773426 -0.865695,0.773426 h -1.543128 c -1.334139,0 -1.121177,-1.023969 -1.754248,-1.043987 -0.707205,0 -0.706939,0.736495 -0.706939,2.186058 0,1.162097 0.0209,2.223938 0.01665,2.905463 -0.01681,2.692959 0.218865,3.71064 1.53523,5.458083 1.376884,1.82778 3.591967,2.841044 3.84555,2.841044 0.253584,0 2.468667,-1.013264 3.845551,-2.841044 1.316365,-1.747443 1.552022,-2.765124 1.53523,-5.458083 -0.004,-0.681525 0.01664,-1.743366 0.01664,-2.905463 0,-1.449563 2.58e-4,-2.186058 -0.706939,-2.186058 -0.633071,0.02003 -0.420109,1.043987 -1.754248,1.043987 h -1.543123 c -0.537486,0 -0.819693,-0.684252 -0.865695,-0.773426 -0.143283,-0.277807 -0.233639,-0.542778 -0.527394,-0.542778 z m -1.166175,2.634073 c 0.548489,0.0048 0.548594,0.09015 0.548594,0.695302 v 7.829494 c 0,0.437175 -0.524636,0.05187 -0.870682,-0.246861 -1.189562,-1.026888 -2.409241,-1.911202 -2.409241,-5.807186 0,-0.785095 -0.0016,-1.096777 0,-1.670719 0.0024,-0.794192 -0.02919,-0.794208 0.681172,-0.794208 h 1.298334 c 0.325032,0 0.568996,-0.0073 0.751823,-0.0056 z m 2.332349,0 c 0.182827,-0.0016 0.426792,0.0056 0.751824,0.0056 h 1.298334 c 0.71039,0 0.679016,1.6e-5 0.681171,0.794215 0.0016,0.573935 0,0.885617 0,1.670712 0,3.895992 -1.219679,4.780297 -2.409241,5.807186 -0.346046,0.298726 -0.870682,0.684043 -0.870682,0.246868 v -7.829493 c 0,-0.605156 1.05e-4,-0.690526 0.548594,-0.695302 z" />
    <path
       id="path1108"
       style="fill:#000000;stroke-width:0.313504"
       d="m 26.385469,51.51636 c -0.242239,8.89e-4 -0.290424,0.739984 -0.54881,4.073342 -0.258807,3.338787 -0.422832,3.792883 -1.012412,4.286054 -1.173877,0.981918 -1.638438,1.872631 -1.637638,3.456671 8.89e-4,1.777586 1.320734,3.377944 3.267469,3.660116 1.482316,0.214864 1.482761,-1.051252 0.424794,-1.304232 -1.491302,-0.3566 -2.395031,-1.333976 -2.198826,-2.972635 0.07984,-0.666828 0.581476,-1.902693 2.079425,-1.930634 0.880779,-0.01644 1.799881,0.365603 2.254393,-0.0551 0.560015,-0.518365 -0.136712,-0.667317 -0.89092,-0.987818 -0.389472,-0.165508 -0.917645,-0.178527 -1.201574,-4.243853 -0.194171,-2.780156 -0.261918,-3.983203 -0.535901,-3.981905 z m -5.601128,7.435412 c -0.280347,-0.01494 -0.2006,0.273118 0.608904,1.142857 0.587631,0.631353 0.519132,0.783439 0.215244,1.328288 -0.32011,0.573935 -0.435757,0.509612 -1.366426,0.640185 -1.493273,0.209507 -1.612108,0.529394 -0.02544,0.850242 1.065866,0.215532 1.048736,0.345269 1.122083,0.957933 0.06838,0.571188 0.11102,0.743645 -0.449746,1.385955 -1.057375,1.211124 -0.48276,1.146109 0.574596,0.464609 0.445454,-0.287114 0.621164,-0.276192 1.069103,0.146489 0.776834,0.733044 1.601595,1.04912 1.152729,0.415662 -0.143807,-0.202948 -0.350826,-0.487387 -0.64665,-0.99108 -0.744904,-1.268347 -0.759918,-2.995704 -0.07347,-4.109253 0.437325,-0.709431 0.623216,-0.981153 0.07347,-1.095277 -0.226958,-0.0471 -0.432188,-0.115831 -0.904696,-0.436278 -0.648414,-0.439745 -1.131649,-0.688752 -1.349698,-0.700332 z m 6.114279,2.796295 c -0.764171,3.4e-5 -1.383643,0.619505 -1.383681,1.383679 3.8e-5,0.764166 0.61951,1.383636 1.383681,1.383679 0.764349,2.14e-4 1.384101,-0.619337 1.384139,-1.383679 -3.8e-5,-0.764351 -0.61979,-1.383901 -1.384139,-1.383679 z"
       sodipodi:nodetypes="ssscsssssssssssssssssssssssccccc" />
    <path
       style="fill:#000000;stroke-width:0.407314"
       d="m 130.55201,13.758467 c -0.0297,-0.505979 -0.0847,-0.70719 -0.4864,-1.075195 -0.45154,-0.41368 -0.72715,-0.138355 -1.2036,0.384342 -0.48322,0.530086 -0.49628,0.686961 -1.51978,0.6629 -0.58385,-0.01374 -1.13016,-0.06385 0.30664,-1.489209 0.68257,-0.703392 0.8604,-1.085874 0.69976,-1.30826 -0.15834,-0.18977 -0.24452,-0.08937 -0.55974,0.126047 -0.77768,0.531402 -1.32263,0.256931 -1.24013,-0.44228 0.0823,-0.6980572 -2.32216,-3.78705 -4.76149,-4.8155057 -0.95012,-0.4005753 -0.8588,-0.9384205 -0.84734,-1.8282209 0.0255,-1.9811701 -0.41186,-1.487038 1.52851,-1.5345265 1.02502,-0.025054 1.50058,-0.1678435 1.92583,0.8077087 1.03748,2.3800598 4.04947,4.8646563 4.77652,4.7585835 0.74155,-0.1081851 0.88334,0.3493345 0.44222,1.1738311 -0.18186,0.3399132 -0.26012,0.4678418 -0.10703,0.5784409 0.25615,0.1851284 0.58604,0.036139 1.25712,-0.630201 1.57975,-1.5686916 1.47338,-0.9916014 1.46366,-0.3854736 -0.017,1.0617429 -0.17815,1.0332825 -0.69038,1.5766925 -0.43079,0.457012 -0.62474,0.723446 -0.33092,1.190757 0.29291,0.465869 0.6338,0.541876 1.11245,0.505991 1.34465,-0.100796 0.696,0.665439 -0.22203,1.569049 -0.866,0.852368 -1.51375,1.502891 -1.54383,0.174529 z"
       id="path481"
       sodipodi:nodetypes="cssscccssssssssssssssc" />
    <path
       id="path12241"
       style="fill:#000000;stroke-width:0.398375"
       d="m 108.37785,2.9844594 c -0.63637,0.3405713 -0.62001,1.0045039 -0.40207,1.8405346 0.5764,2.2111326 0.47416,2.4146578 -1.76584,1.5983664 -1.71804,-0.6260801 -2.23608,-0.5711759 -2.22861,2.1148073 0.009,3.1612403 0.60192,2.3931003 2.45503,1.8282933 1.61482,-0.4921956 2.12606,-0.25634 1.66897,1.472309 -0.51682,1.994496 -0.0756,1.995987 0.5252,2.302138 0.9795,0.504674 2.05684,0.372507 2.87169,-0.03614 0.60078,-0.306153 1.04202,-0.307643 0.5252,-2.302139 -0.45709,-1.728648 0.0541,-1.9645049 1.66898,-1.472308 1.8531,0.564806 2.44681,1.332359 2.45561,-1.8288704 0.007,-2.6859809 -0.51058,-2.7408851 -2.22861,-2.1148164 -2.24001,0.8162914 -2.42577,0.6555311 -1.76585,-1.5977791 0.24284,-0.8291423 0.23372,-1.4999633 -0.40265,-1.8405346 -1.0299,-0.6701435 -2.51668,-0.6293098 -3.37705,0.036136 z"
       sodipodi:nodetypes="cssssccccsssscc" />
    <path
       id="path17277"
       style="fill:#000000;stroke-width:0.402253"
       d="m 91.162922,2.6897182 c -3.188132,0.8782515 -3.228211,0.8184114 -2.671018,1.5974273 0.580999,0.8123111 -0.01188,1.8616794 -0.752457,1.7465032 -1.407766,-0.21895 0.642935,4.5595913 3.150657,6.9011553 0.644853,0.591571 1.909937,1.448956 2.277406,1.61728 0.430889,-0.190615 1.615996,-1.0306 2.209055,-1.61728 2.507723,-2.341564 4.558423,-7.1201053 3.150657,-6.9011553 -0.740571,0.1151762 -1.333457,-0.9341921 -0.752457,-1.7465032 0.557192,-0.7790159 0.517114,-0.7191758 -2.671018,-1.5974273 -1.369614,-0.4646731 -2.631611,-0.3542174 -3.940825,0 z"
       sodipodi:nodetypes="csscccsscc" />
    <path
       id="path701"
       style="color:#000000;fill:#000000;stroke-width:0.256821;-inkscape-stroke:none"
       d="m 25.386564,5.1030068 c -1.065112,0 -2.603294,0.1105081 -3.542419,0.669259 -0.735003,0.4373047 -0.666243,0.5706363 -0.25485,0.744052 1.519245,0.6404117 1.927278,2.0356476 1.741846,2.6609692 -0.341684,1.152237 -1.492192,1.354308 -2.150161,0.7695371 -1.09996,-0.9775931 0.361528,-2.2701369 -0.681447,-3.1795343 -0.327018,-0.2851356 -1.067245,0.2529164 -1.237132,2.0626253 -0.131943,1.4055039 0.536044,2.3306349 1.715807,2.7762059 0.92564,0.349594 2.212731,0.125898 2.891443,-0.414963 1.274898,-1.015956 1.432726,-2.8062731 0.344048,-4.1740043 -0.299845,-0.3767008 -0.414618,-0.6858794 1.172865,-0.6858794 1.587483,0 1.472709,0.3091783 1.172864,0.6858794 -1.088678,1.3677315 -0.930849,3.1580483 0.34405,4.1740043 0.678712,0.540861 1.9658,0.764556 2.89144,0.414963 C 30.974683,11.16055 31.64267,10.235419 31.510726,8.8299151 31.340839,7.0202062 30.600613,6.4821542 30.273594,6.7672898 29.23062,7.6766872 30.692108,8.969231 29.592147,9.9468241 28.934179,10.531594 27.783671,10.329524 27.441986,9.177287 27.256555,8.5519654 27.664588,7.1567298 29.183834,6.5163178 29.595225,6.3429021 29.663987,6.2095705 28.928983,5.7722658 27.989857,5.2135149 26.451676,5.1030068 25.386564,5.1030068 Z" />
    <path
       id="path2382"
       style="fill:#000000;stroke-width:0.256536"
       d="m 5.1244532,20.454556 c -0.6559122,0.01018 -2.0230485,1.054585 -2.6180995,2.821403 -0.4550531,1.35114 -0.6777046,3.275553 0.4967887,5.232814 0.2039289,0.339844 0.8770229,1.159076 1.1807185,1.399426 0.9840701,0.778806 1.6070533,0.440678 1.817676,-0.411109 0.4233289,-1.711994 1.2168097,-1.928909 2.3554261,-1.928909 1.1386153,0 1.932096,0.216915 2.355425,1.928909 0.210623,0.851787 0.833605,1.189915 1.817676,0.411109 0.303696,-0.24035 0.976789,-1.059582 1.180719,-1.399426 1.174492,-1.957261 0.951841,-3.881674 0.496787,-5.232814 -0.59505,-1.766818 -1.962186,-2.811244 -2.618098,-2.821403 -0.390661,-0.0058 -0.691944,0.304119 -0.797794,0.807188 -0.335899,1.596452 -1.1669592,2.049535 -2.434715,2.049535 -1.2677568,0 -2.0988157,-0.453083 -2.4347161,-2.049535 C 5.8163975,20.758675 5.5151144,20.448506 5.1244532,20.454556 Z m -0.4332813,2.08937 c 0.109502,-1.23e-4 0.235496,0.126464 0.3848046,0.487391 0.3698012,0.848566 1.4961579,1.717718 3.2809865,1.717718 1.784828,0 2.911183,-0.869152 3.280985,-1.717718 0.341277,-0.824974 0.560718,-0.426641 0.739923,-0.08568 0.775386,1.475301 0.869056,3.515519 0.09394,4.739038 -0.38342,0.605232 -0.588554,0.91735 -0.874828,0.101458 -0.438698,-1.250302 -1.8072891,-1.70889 -3.240025,-1.706069 -1.4327359,-0.0028 -2.8013266,0.455767 -3.2400262,1.706069 -0.286274,0.815892 -0.4914076,0.503774 -0.8748286,-0.101458 -0.77511,-1.223519 -0.6814407,-3.263737 0.093942,-4.739038 0.1008005,-0.191789 0.2143294,-0.401547 0.3551164,-0.401714 z" />
    <path
       id="path23107"
       style="fill-rule:evenodd;stroke-width:0.229568"
       d="m 9.1723717,4.5854658 c 0,0.7963153 -0.640439,1.4418504 -1.430461,1.4418504 -0.79002,0 -1.430458,-0.6455351 -1.430458,-1.4418504 0,-0.7963066 0.640438,-1.4418417 1.430458,-1.4418417 0.790022,0 1.430461,0.6455351 1.430461,1.4418417 z M 7.7640067,12.238983 C 7.7515177,9.7449118 7.7879367,9.066475 7.1732347,8.8417027 6.5019157,8.5200721 5.1635147,8.0874534 4.9805237,6.6848464 4.9651137,6.1897343 5.3718257,6.1333562 6.0743597,6.6335384 6.6837147,7.019396 7.1034557,7.1402885 7.5645267,7.1832864 8.3584877,7.25733 9.1216517,6.9209518 9.5543497,6.4344028 10.085428,5.8372316 10.452966,4.9190481 10.172463,3.8107191 9.9719107,3.0662871 9.4563077,2.3443384 8.6630117,1.9238369 7.8734187,1.5759248 7.9219467,1.0634167 8.7549667,1.0512212 c 0.500489,0 1.4570423,0.309174 2.1355573,0.99309 0.808755,0.8156973 1.394159,2.3304421 0.852923,4.1047162 -0.689402,1.6614744 -1.7903743,2.2660847 -2.4117583,2.7127805 -0.259147,0.5545216 -0.185996,1.7974201 -0.180071,3.0909371 0.0114,2.491154 0.04769,3.964887 -0.697492,4.047155 -0.796778,0.02569 -0.702843,-1.722514 -0.690119,-3.760952 z"
       sodipodi:nodetypes="sssssccccssccccccscc" />
    <path
       id="path1795"
       style="fill:#000000;stroke-width:0.182329"
       d="m 59.266669,0.98377953 c -0.164987,0 -0.362979,0.0841272 -0.523663,0.51431617 -0.228656,0.6121727 -1.256399,1.5576599 -1.789605,1.778208 -0.494443,0.2045141 -0.529311,0.5894563 -0.120267,0.8928577 0.329546,0.2444336 1.021275,0.7745545 1.309789,1.2096385 0.472353,0.7123318 0.484627,0.9236222 0.549971,2.8129155 0.02575,0.7445647 0.09911,1.9238306 0.150961,2.1267146 0.09107,0.356295 0.368572,0.356017 0.422814,0.356018 0.05425,-10e-7 0.331746,2.77e-4 0.422815,-0.356018 0.05186,-0.202884 0.125204,-1.3821499 0.150961,-2.1267146 0.06534,-1.8892933 0.08931,-2.1005837 0.561667,-2.8129155 C 60.690626,4.9437159 61.370659,4.413595 61.700205,4.1691614 62.109249,3.86576 62.074381,3.4808181 61.579938,3.2763037 61.046733,3.0557556 60.018989,2.1102684 59.790333,1.4980957 59.629649,1.0679058 59.431657,0.98377953 59.266669,0.98377953 Z M 54.4115,4.7203934 c -0.02764,-7.365e-4 -0.05283,0.00264 -0.07392,0.00876 -0.114244,0.033181 -0.254678,0.187077 -0.287512,0.4755235 -0.06721,0.5895399 -0.546499,1.3979679 -1.029166,1.7825875 -0.380019,0.3028217 -0.417308,0.5393945 0.136554,0.7045257 0.685672,0.2214452 1.608574,0.8136213 1.819045,1.4215653 0.884793,2.5557116 1.010269,3.0902176 1.361777,2.9945466 0.353333,-0.09617 0.174622,-0.66065 -0.315075,-3.3342958 C 55.925359,8.2393673 56.399348,7.207399 56.873845,6.6656598 57.264201,6.2398556 57.110695,6.0560727 56.62893,5.9911675 56.017029,5.9087302 55.19007,5.4608242 54.829303,4.9894396 54.701457,4.7970053 54.531261,4.7235853 54.4115,4.7203934 Z m 9.710339,0 c -0.119758,0.0032 -0.289957,0.076613 -0.417803,0.2690462 -0.360767,0.4713846 -1.187726,0.9192906 -1.799627,1.0017279 -0.481765,0.064905 -0.635271,0.2486881 -0.244918,0.6744926 0.474497,0.5417392 0.948486,1.5737075 0.85064,2.1079458 -0.489697,2.6736441 -0.668408,3.2381241 -0.315076,3.3342951 0.351509,0.09566 0.476984,-0.438835 1.361778,-2.9945459 0.21047,-0.607944 1.133373,-1.2001201 1.819045,-1.4215652 C 65.929739,7.5266588 65.89245,7.290086 65.512431,6.9872642 65.029764,6.6026445 64.550481,5.7942166 64.48327,5.2046766 64.450439,4.9162302 64.309998,4.7623334 64.195753,4.7291532 c -0.02108,-0.00612 -0.04627,-0.0095 -0.07392,-0.00876 z m -5.783483,5.1744461 c -0.176424,2.479e-4 -0.422998,0.1699645 -0.868805,0.5036785 -0.408255,0.305605 -0.291467,0.412224 0.35391,1.05241 0.733159,0.727262 1.051169,0.913695 1.053594,2.195543 0.0013,0.72241 0.01026,1.739895 0.115254,2.046626 0.07683,0.224442 0.201389,0.239641 0.27436,0.239641 0.07297,0 0.197534,-0.01519 0.274361,-0.239641 0.104947,-0.306731 0.113924,-1.324216 0.115254,-2.046626 0.0025,-1.281848 0.320435,-1.468281 1.053594,-2.195543 0.645377,-0.640186 0.762168,-0.746805 0.353914,-1.05241 -0.445808,-0.333714 -0.692385,-0.5034306 -0.868809,-0.5036785 -0.0802,-1.127e-4 -0.145893,0.034515 -0.209214,0.1051162 -0.151294,0.1686553 -0.200285,0.2647793 -0.01065,0.4429863 0.276191,0.259602 0.271499,0.357451 -0.09083,0.708906 -0.290281,0.281567 -0.44667,0.41697 -0.617623,0.406073 -0.170952,0.01092 -0.327341,-0.124506 -0.617622,-0.406073 -0.362329,-0.351455 -0.367018,-0.449304 -0.09083,-0.708906 0.189635,-0.178207 0.140627,-0.274331 -0.01065,-0.4429863 -0.06332,-0.070598 -0.129023,-0.1052289 -0.209214,-0.1051162 z"
       sodipodi:nodetypes="ssssssssscssssssccscssscscsscscccscscsssssscssccsssccscscsss" />
    <path
       style="fill:#000000;stroke-width:0.308442"
       d="m 43.566543,48.451812 c -0.221934,-0.33993 -0.505791,-0.838259 -0.675977,-1.141711 -0.53254,-0.949555 -0.86653,-1.70422 -0.178583,-2.068499 0.415937,-0.220244 0.733072,0.36627 1.071823,0.98096 0.407755,0.739903 0.797433,1.196239 1.110016,0.958761 0.440999,-0.33504 0.686983,-0.579471 0.275134,-1.061113 -0.333931,-0.390519 -1.91718,-1.778684 -1.135183,-2.529522 0.358205,-0.343932 0.732507,-0.610234 1.166795,-0.794059 0.552722,-0.233955 0.186882,-0.39055 -0.15063,-0.631256 L 43.180772,40.832325 40.672431,39.04343 37.524817,36.805902 c -0.411828,-0.292754 -0.840586,-0.598965 -0.341028,-1.284473 0.403351,-0.553489 0.650912,-0.536631 1.825606,0.301135 1.958281,1.396605 4.578944,3.275996 6.162438,4.40531 2.975963,2.122392 3.547917,2.468291 0.559675,3.523822 -0.713856,0.252155 -0.798488,0.446577 -0.577013,0.644346 0.25775,0.242143 1.052142,0.956815 1.382662,1.460379 0.414421,0.631392 0.318651,1.013197 -0.01324,1.549265 -0.294478,0.475637 -1.06054,1.49029 -1.575782,1.960886 -0.378685,0.345871 -0.684937,0.152268 -1.381578,-0.91476 z m -3.082146,-3.709975 c -0.06629,-0.127233 -0.114474,-0.746424 -0.114474,-1.399797 0,-0.702025 0.01976,-1.072951 0.438522,-0.898692 0.212359,0.08838 0.632387,0.258807 0.629989,0.700033 -0.0048,0.877118 0.188708,0.986953 0.807913,0.354653 0.423581,-0.432539 0.137424,-0.607265 -2.934355,-2.797994 -0.760124,-0.542102 -1.23457,-0.842951 -1.575142,-1.137003 -0.430714,-0.371878 -0.374385,-0.620411 -0.21732,-1.140853 0.16842,-0.558067 0.726445,-0.09977 1.796903,0.663663 l 3.789854,2.702842 c 0.84089,0.599704 0.321333,1.996988 -0.204612,2.598745 -0.594567,0.584014 -0.855503,0.709243 -1.299501,0.769781 -0.511821,0.06979 -0.880538,0.13504 -1.117772,-0.415378 z"
       id="path20751"
       sodipodi:nodetypes="sssssssssssssssscsssssssssssssscscss" />
    <path
       style="fill:#000000;stroke-width:0.280728"
       d="m 38.430843,64.864677 c -1.387135,-0.332891 -1.616197,-1.244536 0.343504,-1.159663 0.448604,-9.91e-4 0.66565,-0.01749 0.678038,-0.22948 0.17725,-3.033093 -1.838564,-8.809278 -2.005322,-9.242385 -0.382016,-0.992181 -0.419991,-1.232264 0.701416,-0.323013 0.978117,0.793069 5.062625,4.259432 7.461369,4.50874 0.269957,0.02806 0.382774,-0.127192 0.321322,-0.687126 -0.09293,-0.846766 -0.03144,-1.320101 0.509026,-1.525779 0.778838,-0.29636 1.052663,0.875748 1.018297,1.915574 -0.140587,4.253613 -3.37405,7.382881 -7.045194,7.043471 -1.044066,-0.09653 -1.133727,-0.09666 -1.982456,-0.300339 z m 6.612665,-4.263691 c 0.239587,-0.349639 0.219217,-0.498754 0.02418,-0.563671 -0.97604,-0.324878 -3.980398,-1.412958 -5.1321,-2.739121 -0.224838,-0.258896 -0.208361,-0.06256 -0.110201,0.186221 0.652519,1.653747 0.899049,3.4302 0.844321,5.499024 -0.0092,0.344729 0.04998,0.381829 0.350728,0.347292 1.949373,-0.288381 3.037955,-1.284993 4.023071,-2.729745 z"
       id="path33399"
       sodipodi:nodetypes="scssssssssscsssscc" />
    <path
       id="path48779"
       style="fill:#000000;stroke-width:0.18507"
       d="m 75.563188,68.836558 c -0.260556,5.85e-4 -0.522942,0.624848 -2.358169,5.751314 -0.729638,2.038147 -1.360667,3.865803 -1.454204,3.96674 -0.453732,0.489629 -0.609726,-1.766981 -0.289362,-2.631581 0.297761,-0.803596 -0.434962,-0.539007 -0.873205,0.320688 -0.620502,1.217226 -1.131337,2.736996 0.06779,4.194579 0.297159,0.361211 0.426638,0.539348 0.368535,0.718843 -0.111222,0.343599 -0.408408,1.314425 -0.408408,1.682619 -0.131485,0.585487 0.09232,1.07907 0.662452,0.382774 0.313641,-0.383048 0.745667,-1.533072 0.780931,-1.635341 0.09118,-0.264423 0.448479,-0.07715 1.362497,0.01141 2.709355,0.198172 6.123161,-0.974401 8.624979,-3.319666 0.882926,-0.827676 0.160562,-0.868961 -0.165186,-0.596946 -1.439013,1.201638 -5.134971,2.228741 -6.79996,2.157669 -0.80696,-0.03444 -1.848671,-0.09258 -2.083619,-0.300184 -0.06583,-0.05817 0.08756,-0.661409 0.321258,-1.386991 0.141629,-0.439743 0.209362,-0.646302 0.333789,-1.109594 0.04272,-0.159059 0.172924,-0.08321 0.269993,0.07006 0.61977,0.978609 1.673725,1.5966 2.832082,1.597174 1.829279,-7.8e-5 3.312183,-1.482981 3.312259,-3.312259 4.2e-5,-0.95261 -0.410048,-1.859125 -1.125541,-2.48804 -0.208734,-0.293715 -0.152716,-0.528755 -0.146958,-0.881183 0.01081,-0.654871 -0.276634,-0.813971 -0.798018,-0.403848 -0.283222,0.222773 -0.479039,0.532076 -0.753589,0.491567 -0.160089,-0.02362 -0.338251,-0.02499 -0.488153,-0.03133 -0.488701,2.13e-4 -0.971301,0.108561 -1.413193,0.31727 -0.345696,0.06915 -0.230201,-0.205401 0.0024,-1.003076 0.485129,-1.664549 0.730251,-2.412828 0.301323,-2.54728 -0.02866,-0.009 -0.05564,-0.01546 -0.08259,-0.01536 z m 1.192187,4.576218 c 1.096156,1.93e-4 1.984631,0.88892 1.984507,1.985077 -1.92e-4,1.095935 -0.888574,1.984314 -1.984507,1.984506 -1.096156,1.23e-4 -1.984886,-0.888351 -1.985079,-1.984506 -1.22e-4,-1.096379 0.888699,-1.985199 1.985079,-1.985077 z"
       sodipodi:nodetypes="csssssscsscssssssscsccssccssscccccc" />
    <path
       id="path54762-5"
       style="fill:#000000;stroke-width:0.316923"
       d="m 2.0619276,74.953792 c -0.6916675,0.59074 -0.9623218,1.67395 -0.8263987,1.828493 0.1406382,0.159893 1.264183,0.07291 1.9499941,-0.526459 L 6.2242106,73.660542 9.2628982,71.065258 C 9.962195,70.48168 10.223879,69.385518 10.087922,69.221627 9.9565527,69.063195 8.8443304,69.161077 8.152663,69.751813 l -3.0453677,2.600989 z m 2.7214741,3.186437 c -0.6916674,0.59074 -0.9623217,1.67395 -0.8263987,1.828493 0.1406383,0.159893 1.2641831,0.07291 1.9499942,-0.526459 l 3.0386876,-2.595284 3.0386882,-2.595284 c 0.699296,-0.583578 0.96098,-1.67974 0.825023,-1.843631 -0.131369,-0.158432 -1.243591,-0.06055 -1.935259,0.530185 l -3.0453675,2.60099 z m 2.7389256,3.20687 c -0.6916675,0.590739 -0.96232,1.673952 -0.826397,1.828495 0.1406382,0.159893 1.2641813,0.07291 1.9499924,-0.526461 l 3.0386883,-2.595284 3.038687,-2.595285 c 0.699297,-0.583578 0.960982,-1.679737 0.825025,-1.843628 -0.131369,-0.158432 -1.243593,-0.06056 -1.93526,0.530183 l -3.045368,2.60099 z" />
    <path
       id="path58639"
       style="fill:#000000;stroke-width:0.303653"
       d="m 23.575278,68.892226 c -0.443277,0 -0.601301,0.692238 -0.591952,1.261646 0.0061,0.361221 0,0.988207 0,1.520419 0,2.238323 9.3e-5,2.88871 -0.945124,1.820278 -0.273406,-0.30905 -0.40343,-0.423356 -1.034529,-0.333181 -0.571128,0.08161 0.136075,1.402162 0.278763,1.710331 0.536406,1.158502 2.351986,5.228424 2.783728,6.775241 0.241799,0.866298 0.304123,1.860817 1.333836,1.860817 1.029713,0 1.092036,-0.994519 1.333837,-1.860817 0.43174,-1.546817 2.247322,-5.616739 2.783727,-6.775241 0.14269,-0.308169 0.84989,-1.628717 0.278763,-1.710331 -0.631099,-0.09018 -0.761122,0.02414 -1.034528,0.333181 -0.945218,1.068432 -0.945125,0.418045 -0.945125,-1.820278 0,-0.532212 -0.0061,-1.159198 0,-1.520419 0.0094,-0.569408 -0.148673,-1.261646 -0.591951,-1.261646 -0.467792,0 -0.607389,0.710283 -0.6075,1.04841 -2.02e-4,0.614765 0,1.880977 0,3.066379 0,0.389633 -0.192288,1.055629 -1.217223,1.055629 -1.024935,0 -1.217221,-0.665996 -1.217221,-1.055629 0,-1.185402 2.01e-4,-2.451614 0,-3.066379 -1.13e-4,-0.338127 -0.13971,-1.04841 -0.607501,-1.04841 z m 3.697202,5.830117 c 0.143757,0.0028 0.285926,0.110831 0.480889,0.320408 0.474115,0.509656 0.182979,1.425557 -1.127816,2.358925 -0.743507,0.529422 -1.264277,0.744736 -0.545863,1.340498 0.272201,0.225729 0.241556,0.697282 0.241556,1.008984 0,0.111317 0.02432,0.527799 -0.231006,0.850166 -0.259269,0.327354 -0.443778,0.61528 -0.45979,1.085616 -0.0063,0.185208 -0.107006,0.260438 -0.23045,0.260438 -0.123445,0 -0.22411,-0.07523 -0.23045,-0.260438 -0.01601,-0.470336 -0.200519,-0.758262 -0.45979,-1.085616 -0.255322,-0.322367 -0.231006,-0.738849 -0.231006,-0.850166 0,-0.311702 -0.03063,-0.783255 0.241557,-1.008984 0.718414,-0.595762 0.197643,-0.811076 -0.545863,-1.340498 -1.310795,-0.933368 -1.601932,-1.849269 -1.127818,-2.358925 0.415921,-0.447099 0.590597,-0.431209 1.056185,0.07996 0.364056,0.399701 0.735895,0.557523 1.297185,0.557523 0.56129,0 0.93313,-0.157822 1.297187,-0.557523 0.247342,-0.271558 0.412367,-0.403534 0.575293,-0.400372 z" />
    <path
       id="path69596"
       style="fill:#000000;stroke-width:0.279572"
       d="m 39.554584,70.247401 c -0.03596,2.72e-4 -0.07212,0.0011 -0.108841,0.0022 -0.651705,0.02133 -0.776089,0.222616 -0.362804,0.297178 1.155408,0.208446 2.701622,1.209241 3.411409,2.078644 0.08652,0.105972 0.339975,0.512006 0.196887,0.441232 -0.528284,-0.261299 -1.259141,-0.30309 -1.606489,-0.292839 -3.783385,0.409709 -5.37894,4.609001 -4.633028,7.576716 0.196376,1.166884 1.154796,2.325886 0.957981,1.55101 -0.222586,-1.396823 -0.273863,-2.671425 0.117618,-4.132471 0.106711,-0.398254 0.235739,-0.39616 0.355882,0.0045 1.103145,3.738096 5.658094,3.917643 8.194342,2.201218 0.891674,-0.61369 1.845084,-1.509992 2.135334,-2.022202 0.269673,-0.475901 0.246904,-0.77752 -0.129356,-0.382936 -0.822789,0.862864 -2.1185,1.608947 -3.343385,1.876862 -1.014729,0.22195 -0.277471,-0.241467 -0.0694,-0.588288 2.031936,-2.405465 -0.09844,-6.754018 -2.891326,-8.057544 -0.36241,-0.178881 -1.110253,-0.564066 -2.224831,-0.553273 -1.3e-5,0 2.5e-5,-3.8e-5 1.2e-5,-3.8e-5 z m 1.911112,4.218641 c 1.204934,1.51e-4 2.181643,1.002177 2.181616,2.23817 2.7e-5,1.235993 -0.976682,2.238019 -2.181616,2.238169 -1.205141,1.53e-4 -2.182175,-1.001964 -2.182147,-2.238169 -2.8e-5,-1.236206 0.977006,-2.238323 2.182147,-2.23817 z"
       sodipodi:nodetypes="ssssscccsccsssccssssssss" />
    <path
       id="path86127-3"
       style="fill:#000000;stroke:#000000;stroke-width:0;stroke-linecap:butt;stroke-linejoin:miter;stroke-miterlimit:4;stroke-dasharray:none;stroke-opacity:1"
       d="m 58.937089,70.035465 c -0.133928,0.0012 -0.270577,0.0027 -0.408739,0.01476 -3.463759,0.299383 -5.901069,3.097689 -5.206768,6.875407 0.312691,1.70136 1.579444,3.509776 2.063631,3.035504 0.246286,-0.241241 0.233123,-0.445881 -0.24933,-1.140078 -0.348422,-0.501342 -0.605842,-1.236582 -0.605842,-2.010609 0,-1.08244 0.09751,-1.307503 0.527849,-0.993525 0.452718,0.403834 0.963125,0.868525 1.85434,0.892813 0.778173,0.02121 0.943972,0.269496 0.812388,1.101945 -0.02559,0.161855 -0.08515,0.742223 -0.09214,0.950841 -0.01629,0.487733 0.340919,0.414847 1.643099,0.414847 1.302183,0 1.659432,0.07288 1.643103,-0.414847 -0.17815,-1.71195 -0.394889,-2.126924 0.421971,-2.300238 0.159204,-10e-4 0.797241,-0.0162 1.24963,0.458112 0.223141,0.233959 0.648741,0.914717 0.500729,1.61106 -0.488299,1.760761 -2.956217,3.131564 -5.762074,2.513288 -0.994712,-0.219187 -1.127361,0.38883 0.252133,0.898272 4.526855,1.304835 8.08103,-1.966433 7.815921,-6.302793 -0.08596,-1.406094 -0.949106,-2.907324 -1.60747,-3.159963 -0.30025,-0.115212 -0.495084,-0.04891 -0.190369,0.963566 0.37055,1.231249 0.486868,2.54558 0.226513,2.54558 -0.07962,0 -0.436052,-0.252946 -0.893442,-0.470222 -0.432926,-0.205654 -1.017572,-0.409972 -1.689129,-0.307952 -0.441997,0.06715 -0.709126,0.264624 -0.84775,-0.0218 -0.185369,-0.383019 -0.193072,-0.345333 -0.497617,-1.394167 -0.07895,-0.275747 -0.33099,-1.269675 -0.622149,-1.269675 -0.323767,0 -0.525264,0.891582 -0.631732,1.269675 -0.47042,1.670597 -0.654971,1.512276 -1.105139,1.547106 -0.691895,0.05352 -1.65726,-0.326094 -2.079835,-1.02414 -0.279557,-0.461796 -0.07597,-1.212617 0.588187,-1.583268 0.721594,-0.402707 1.153222,-0.738246 2.039857,-1.232091 0.659464,-0.367313 1.874563,-0.41551 2.82554,-0.139978 1.69001,0.48965 1.743454,-0.38517 0.358347,-0.943712 -0.577233,-0.23277 -1.396328,-0.393339 -2.333835,-0.3838 z m 0.338494,4.937444 c 0.04897,-4e-6 0.17234,0.07115 0.199645,0.48267 0.06188,0.932442 0.07254,1.565309 0.109836,1.942785 0.02573,0.260336 0.160898,0.340498 -0.309481,0.336459 -0.470376,0.0041 -0.335208,-0.07611 -0.309481,-0.336459 0.03731,-0.377476 0.0397,-1.010343 0.10157,-1.942785 0.02732,-0.411524 0.158938,-0.48267 0.207911,-0.48267 z"
       sodipodi:nodetypes="scsssscsscsccscscssssssscsssssssssssscssss" />
    <path
       id="path95027-8"
       style="fill:#000000;stroke-width:0.266422"
       d="m 12.049731,88.108643 c -0.28611,0.286806 -0.663754,0.880335 -0.207516,0.908574 0.557006,0.10246 0.652211,0.383556 0.6655,0.796597 0.0141,0.438129 -0.309956,0.48273 -0.537049,0.545338 -1.244713,0.343159 -2.292709,0.967838 -3.3382976,0.997355 -0.035156,0.0011 -0.070566,0.0016 -0.1064535,0.0016 -1.1222699,0 -1.8799686,-0.478208 -3.1005859,-0.866613 -1.8945045,-0.602835 -3.1114166,-1.136039 -3.5548218,-0.785482 -0.4727429,0.373753 0.2278201,1.963462 0.712618,2.934705 0.5946287,1.191279 1.0070411,2.206369 2.6360148,2.279965 0.7137323,0.03225 1.4593538,-0.334904 1.8412314,-0.526584 0.4956543,-0.248791 1.0908286,-0.526582 1.4655435,-0.526582 0.3916621,0.128304 1.3534381,0.23658 1.0795201,0.641821 -0.550563,0.814517 -1.8322978,3.145631 -1.8567337,3.567224 -0.066146,1.141206 2.6465277,-2.244159 3.0179037,-2.873727 0.23656,-0.401027 0.432969,-0.339249 0.786515,-0.291492 1.759696,0.237713 2.230292,-1.079346 2.814815,-2.270625 0.476561,-0.971243 1.158368,-2.552941 0.700216,-2.934705 -0.161493,-0.134567 -0.347597,-0.134133 -0.731222,-0.03774 -0.166684,0.04188 -0.171434,-0.149198 -0.198501,-0.428336 -0.05387,-0.555599 -1.442015,-1.692786 -2.088697,-1.131282 z m -8.4966387,3.119189 c 0.2229321,-0.0078 0.6099313,0.07403 1.25212,0.292489 0.6321774,0.215051 1.2742857,0.504431 1.7192749,0.738457 0.6995499,0.367906 0.9303205,0.540708 0.5761921,0.752925 -0.3910999,0.234373 -1.4374108,0.336793 -1.997294,0.360701 -0.4829273,0.02064 -0.970952,0.167807 -1.6572632,-1.44694 -0.1451068,-0.341405 -0.3186274,-0.68277 0.1069702,-0.697632 z m 9.7802817,0.0072 c 0.607385,-0.06612 0.117407,0.876703 -0.109039,1.311553 -0.323551,0.533869 -0.579938,0.783305 -1.121895,0.802542 -0.764377,0.02713 -1.348179,0.01154 -2.227783,-0.397388 -0.33738,-0.183555 0.131857,-0.432586 0.618567,-0.692981 0.437427,-0.234026 1.0689,-0.523406 1.690336,-0.738457 0.397421,-0.109932 0.795294,-0.246674 1.149814,-0.285269 z"
       sodipodi:nodetypes="ccssssssssscsssssssscsssssssscscscs" />
    <path
       id="path1662"
       style="fill:#000000;stroke-width:0.0796779"
       d="m 86.587449,19.535568 c -0.137367,0.0058 -0.07952,0.289936 -0.07952,0.558834 0.07244,1.162617 0.284627,2.074749 0.911785,2.954311 0.294787,0.411548 0.762984,0.578179 1.523996,0.679753 0.436644,0.05828 0.974724,0.192467 1.156886,0.213511 1.169121,0.135059 1.250957,0.208149 1.047951,-0.275604 -0.246672,-0.58782 -0.251961,-0.757219 -0.328982,-1.187389 -0.125742,-0.702255 -0.403198,-1.311834 -0.673216,-1.366042 -0.09478,-0.01902 -0.479345,-0.138746 -0.666681,-0.192815 -0.459511,-0.132619 -0.724083,-0.249382 -1.179762,-0.459703 -0.350583,-0.1661 -0.733298,-0.355021 -0.928124,-0.477135 -0.194826,-0.122116 -0.533065,-0.325043 -0.617659,-0.380183 -0.07445,-0.04853 -0.128212,-0.06912 -0.166672,-0.06754 z m 13.076521,0 c -0.03708,0.0036 -0.08626,0.02508 -0.151419,0.06754 -0.0846,0.05512 -0.422833,0.258069 -0.61766,0.380183 -0.194826,0.122115 -0.57754,0.311034 -0.928123,0.477133 -0.455681,0.210321 -0.720252,0.327079 -1.179765,0.459704 -0.187333,0.05406 -0.571893,0.173783 -0.666678,0.192814 -0.270021,0.0542 -0.54748,0.663787 -0.673217,1.366042 -0.07701,0.43017 -0.08232,0.599569 -0.328982,1.187389 -0.203005,0.483754 -0.121173,0.410666 1.047951,0.275604 0.182161,-0.02104 0.720243,-0.155231 1.156887,-0.21351 0.761012,-0.101571 1.229208,-0.268207 1.523997,-0.679754 0.641372,-0.837191 0.902834,-2.015819 0.911787,-2.954309 0,-0.2689 0.0578,-0.553186 -0.07952,-0.558835 -0.0049,-1.99e-4 -0.01,-5.06e-4 -0.01524,0 z m -11.703946,6.67552 c -0.154618,-7.27e-4 -0.135103,0.147935 -0.127454,0.315911 0.126632,2.778939 0.04099,3.049894 -0.180832,4.452162 -0.04837,0.305791 -0.04562,0.308879 0.180832,0.2658 1.497403,-0.284854 1.941131,-0.748948 1.961913,-1.254929 -0.01664,-0.236571 -0.02511,-1.444117 0.196083,-0.972785 0.02464,0.05249 0.376106,0.634241 0.528333,1.098062 0.150557,0.458731 1.671178,0.111114 2.614433,0.111114 0.943255,0 2.463877,0.34762 2.614434,-0.111114 0.152227,-0.463821 0.503697,-1.045568 0.528333,-1.098062 0.221191,-0.471332 0.212721,0.736214 0.196082,0.972785 0.02077,0.505981 0.464511,0.970075 1.961915,1.254929 0.22646,0.04307 0.229204,0.04 0.180829,-0.2658 -0.221825,-1.402268 -0.307464,-1.673223 -0.180829,-4.452162 0.0077,-0.167976 0.02716,-0.316638 -0.127456,-0.315911 -0.05155,2.39e-4 -0.123032,0.01744 -0.220048,0.05558 -0.489627,0.130731 -1.027612,0.305761 -1.508744,0.449902 -0.510172,0.152839 -0.64739,0.235503 -0.828995,0.467329 -0.288488,0.368269 -0.345415,0.536615 -0.49892,0.861674 -0.38311,0.811255 -0.218313,1.031135 -0.697183,-0.310466 -0.210299,-0.589175 -0.05262,-0.614391 -1.419418,-0.614391 -1.366799,0 -1.209121,0.02521 -1.41942,0.614391 -0.478869,1.341601 -0.314071,1.121721 -0.697181,0.310464 -0.153507,-0.325058 -0.210431,-0.493404 -0.498922,-0.861672 -0.181602,-0.231826 -0.318821,-0.314493 -0.828993,-0.46733 -0.481133,-0.144142 -1.019118,-0.319175 -1.508745,-0.449901 -0.09702,-0.0381 -0.168509,-0.05532 -0.22005,-0.05558 z"
       sodipodi:nodetypes="sccsssssscsssssscscssssccssscsccssssscsssscssssssssscsc" />
  </g>
</svg>
